<svg width="513" height="342" viewBox="0 0 513 342" fill="none" xmlns="http://www.w3.org/2000/svg">
<rect opacity="0.7" width="513" height="342" fill="#61707E"/>
<path d="M78.1938 171.6C75.1938 171.6 72.5338 171 70.2138 169.8C67.8938 168.56 66.0938 166.82 64.8138 164.58C63.5738 162.34 62.9538 159.76 62.9538 156.84V143.16C62.9538 140.28 63.5938 137.74 64.8738 135.54C66.1538 133.3 67.9338 131.58 70.2138 130.38C72.5338 129.14 75.1938 128.52 78.1938 128.52C81.2338 128.52 83.8938 129.14 86.1738 130.38C88.4938 131.58 90.2938 133.3 91.5738 135.54C92.8538 137.74 93.4937 140.28 93.4937 143.16V156.84C93.4937 159.76 92.8538 162.34 91.5738 164.58C90.2938 166.82 88.4938 168.56 86.1738 169.8C83.8938 171 81.2338 171.6 78.1938 171.6ZM78.1938 165.6C80.7138 165.6 82.7338 164.82 84.2538 163.26C85.7738 161.7 86.5338 159.64 86.5338 157.08V143.1C86.5338 140.5 85.7738 138.42 84.2538 136.86C82.7338 135.3 80.7138 134.52 78.1938 134.52C75.7138 134.52 73.7138 135.3 72.1938 136.86C70.6738 138.42 69.9138 140.5 69.9138 143.1V157.08C69.9138 159.64 70.6738 161.7 72.1938 163.26C73.7138 164.82 75.7138 165.6 78.1938 165.6ZM126.559 148.26C127.279 150.3 127.639 152.8 127.639 155.76C127.639 158.6 127.299 161.04 126.619 163.08C125.739 165.72 124.319 167.78 122.359 169.26C120.439 170.74 117.999 171.48 115.039 171.48C112.199 171.48 109.919 170.46 108.199 168.42C108.119 168.34 108.039 168.32 107.959 168.36C107.879 168.4 107.839 168.48 107.839 168.6V181.62C107.839 181.82 107.759 181.98 107.599 182.1C107.479 182.26 107.319 182.34 107.119 182.34H101.599C101.399 182.34 101.219 182.26 101.059 182.1C100.939 181.98 100.879 181.82 100.879 181.62V141.06C100.879 140.86 100.939 140.7 101.059 140.58C101.219 140.42 101.399 140.34 101.599 140.34H107.119C107.319 140.34 107.479 140.42 107.599 140.58C107.759 140.7 107.839 140.86 107.839 141.06V142.86C107.839 142.98 107.879 143.06 107.959 143.1C108.039 143.14 108.119 143.1 108.199 142.98C109.959 140.9 112.259 139.86 115.099 139.86C117.939 139.86 120.339 140.6 122.299 142.08C124.259 143.56 125.679 145.62 126.559 148.26ZM118.759 162.96C119.959 161.12 120.559 158.68 120.559 155.64C120.559 152.72 120.079 150.42 119.119 148.74C117.999 146.78 116.299 145.8 114.019 145.8C111.939 145.8 110.379 146.76 109.339 148.68C108.419 150.24 107.959 152.56 107.959 155.64C107.959 158.8 108.459 161.2 109.459 162.84C110.499 164.6 111.999 165.48 113.959 165.48C116.079 165.48 117.679 164.64 118.759 162.96ZM160.014 152.22C160.174 153.22 160.254 154.34 160.254 155.58L160.194 157.44C160.194 157.92 159.954 158.16 159.474 158.16H140.694C140.494 158.16 140.394 158.26 140.394 158.46C140.514 159.78 140.694 160.68 140.934 161.16C141.894 164.04 144.234 165.5 147.954 165.54C150.674 165.54 152.834 164.42 154.434 162.18C154.594 161.94 154.794 161.82 155.034 161.82C155.194 161.82 155.334 161.88 155.454 162L159.174 165.06C159.534 165.34 159.594 165.66 159.354 166.02C158.114 167.78 156.454 169.14 154.374 170.1C152.334 171.06 150.054 171.54 147.534 171.54C144.414 171.54 141.754 170.84 139.554 169.44C137.394 168.04 135.814 166.08 134.814 163.56C133.894 161.4 133.434 158.4 133.434 154.56C133.434 152.24 133.674 150.36 134.154 148.92C134.954 146.12 136.454 143.92 138.654 142.32C140.894 140.68 143.574 139.86 146.694 139.86C154.574 139.86 159.014 143.98 160.014 152.22ZM146.694 145.86C145.214 145.86 143.974 146.24 142.974 147C142.014 147.72 141.334 148.74 140.934 150.06C140.694 150.74 140.534 151.62 140.454 152.7C140.374 152.9 140.454 153 140.694 153H152.874C153.074 153 153.174 152.9 153.174 152.7C153.094 151.7 152.974 150.94 152.814 150.42C152.454 148.98 151.734 147.86 150.654 147.06C149.614 146.26 148.294 145.86 146.694 145.86ZM180.895 139.98C182.175 139.98 183.295 140.24 184.255 140.76C184.575 140.92 184.695 141.22 184.615 141.66L183.595 147.06C183.555 147.54 183.275 147.68 182.755 147.48C182.155 147.28 181.455 147.18 180.655 147.18C180.135 147.18 179.735 147.2 179.455 147.24C177.775 147.32 176.375 147.92 175.255 149.04C174.135 150.12 173.575 151.54 173.575 153.3V170.28C173.575 170.48 173.495 170.66 173.335 170.82C173.215 170.94 173.055 171 172.855 171H167.335C167.135 171 166.955 170.94 166.795 170.82C166.675 170.66 166.615 170.48 166.615 170.28V141.06C166.615 140.86 166.675 140.7 166.795 140.58C166.955 140.42 167.135 140.34 167.335 140.34H172.855C173.055 140.34 173.215 140.42 173.335 140.58C173.495 140.7 173.575 140.86 173.575 141.06V143.76C173.575 143.92 173.595 144.02 173.635 144.06C173.715 144.06 173.795 144 173.875 143.88C175.555 141.28 177.895 139.98 180.895 139.98ZM200.58 139.86C203.1 139.86 205.32 140.3 207.24 141.18C209.16 142.06 210.64 143.28 211.68 144.84C212.72 146.36 213.24 148.1 213.24 150.06V170.28C213.24 170.48 213.16 170.66 213 170.82C212.88 170.94 212.72 171 212.52 171H207C206.8 171 206.62 170.94 206.46 170.82C206.34 170.66 206.28 170.48 206.28 170.28V168.36C206.28 168.24 206.24 168.18 206.16 168.18C206.08 168.14 206 168.16 205.92 168.24C203.96 170.4 201.12 171.48 197.4 171.48C194.4 171.48 191.92 170.72 189.96 169.2C188.04 167.68 187.08 165.42 187.08 162.42C187.08 159.3 188.16 156.88 190.32 155.16C192.52 153.4 195.6 152.52 199.56 152.52H205.98C206.18 152.52 206.28 152.42 206.28 152.22V150.78C206.28 149.22 205.82 148.02 204.9 147.18C203.98 146.3 202.6 145.86 200.76 145.86C199.24 145.86 198 146.14 197.04 146.7C196.12 147.22 195.54 147.96 195.3 148.92C195.18 149.4 194.9 149.6 194.46 149.52L188.64 148.8C188.44 148.76 188.26 148.7 188.1 148.62C187.98 148.5 187.94 148.36 187.98 148.2C188.3 145.76 189.6 143.76 191.88 142.2C194.2 140.64 197.1 139.86 200.58 139.86ZM199.14 165.96C201.1 165.96 202.78 165.44 204.18 164.4C205.58 163.36 206.28 162.04 206.28 160.44V157.62C206.28 157.42 206.18 157.32 205.98 157.32H200.94C198.82 157.32 197.14 157.72 195.9 158.52C194.7 159.32 194.1 160.46 194.1 161.94C194.1 163.22 194.56 164.22 195.48 164.94C196.44 165.62 197.66 165.96 199.14 165.96ZM258.94 171C258.54 171 258.28 170.8 258.16 170.4L256.18 163.98C256.1 163.82 256 163.74 255.88 163.74H240.04C239.92 163.74 239.82 163.82 239.74 163.98L237.76 170.4C237.64 170.8 237.38 171 236.98 171H230.98C230.74 171 230.56 170.94 230.44 170.82C230.32 170.66 230.3 170.44 230.38 170.16L243.4 129.6C243.52 129.2 243.78 129 244.18 129H251.68C252.08 129 252.34 129.2 252.46 129.6L265.54 170.16C265.58 170.24 265.6 170.34 265.6 170.46C265.6 170.82 265.38 171 264.94 171H258.94ZM241.6 157.92C241.56 158.16 241.64 158.28 241.84 158.28H254.02C254.26 158.28 254.34 158.16 254.26 157.92L248.08 137.82C248.04 137.66 247.98 137.58 247.9 137.58C247.82 137.58 247.76 137.66 247.72 137.82L241.6 157.92ZM289.266 141.06C289.266 140.86 289.326 140.7 289.446 140.58C289.606 140.42 289.786 140.34 289.986 140.34H295.446C295.646 140.34 295.806 140.42 295.926 140.58C296.086 140.7 296.166 140.86 296.166 141.06V170.28C296.166 170.48 296.086 170.66 295.926 170.82C295.806 170.94 295.646 171 295.446 171H289.986C289.786 171 289.606 170.94 289.446 170.82C289.326 170.66 289.266 170.48 289.266 170.28V168.36C289.266 168.24 289.226 168.16 289.146 168.12C289.066 168.08 288.986 168.12 288.906 168.24C287.266 170.36 284.806 171.42 281.526 171.42C278.486 171.42 275.926 170.54 273.846 168.78C271.806 167.02 270.786 164.52 270.786 161.28V141.06C270.786 140.86 270.846 140.7 270.966 140.58C271.126 140.42 271.306 140.34 271.506 140.34H277.026C277.226 140.34 277.386 140.42 277.506 140.58C277.666 140.7 277.746 140.86 277.746 141.06V159.3C277.746 161.18 278.226 162.68 279.186 163.8C280.186 164.92 281.566 165.48 283.326 165.48C285.126 165.48 286.566 164.92 287.646 163.8C288.726 162.68 289.266 161.18 289.266 159.3V141.06ZM322.627 129.72C322.627 129.52 322.687 129.36 322.807 129.24C322.967 129.08 323.147 129 323.347 129H328.867C329.067 129 329.227 129.08 329.347 129.24C329.507 129.36 329.587 129.52 329.587 129.72V170.28C329.587 170.48 329.507 170.66 329.347 170.82C329.227 170.94 329.067 171 328.867 171H323.347C323.147 171 322.967 170.94 322.807 170.82C322.687 170.66 322.627 170.48 322.627 170.28V168.48C322.627 168.36 322.587 168.28 322.507 168.24C322.427 168.2 322.347 168.24 322.267 168.36C320.507 170.44 318.207 171.48 315.367 171.48C312.527 171.48 310.127 170.74 308.167 169.26C306.207 167.78 304.787 165.72 303.907 163.08C303.187 160.84 302.827 158.34 302.827 155.58C302.827 152.74 303.167 150.3 303.847 148.26C304.727 145.62 306.147 143.56 308.107 142.08C310.067 140.6 312.527 139.86 315.487 139.86C318.247 139.86 320.507 140.86 322.267 142.86C322.347 142.94 322.427 142.98 322.507 142.98C322.587 142.94 322.627 142.86 322.627 142.74V129.72ZM321.187 162.6C322.107 160.96 322.567 158.64 322.567 155.64C322.567 152.52 322.067 150.14 321.067 148.5C319.987 146.74 318.467 145.86 316.507 145.86C314.467 145.86 312.867 146.7 311.707 148.38C310.507 150.14 309.907 152.58 309.907 155.7C309.907 158.5 310.387 160.8 311.347 162.6C312.467 164.52 314.167 165.48 316.447 165.48C318.487 165.48 320.067 164.52 321.187 162.6ZM341.082 136.14C339.842 136.14 338.822 135.74 338.022 134.94C337.222 134.14 336.822 133.12 336.822 131.88C336.822 130.64 337.222 129.62 338.022 128.82C338.822 128.02 339.842 127.62 341.082 127.62C342.322 127.62 343.342 128.02 344.142 128.82C344.942 129.62 345.342 130.64 345.342 131.88C345.342 133.12 344.942 134.14 344.142 134.94C343.342 135.74 342.322 136.14 341.082 136.14ZM338.202 171C338.002 171 337.822 170.94 337.662 170.82C337.542 170.66 337.482 170.48 337.482 170.28V141C337.482 140.8 337.542 140.64 337.662 140.52C337.822 140.36 338.002 140.28 338.202 140.28H343.722C343.922 140.28 344.082 140.36 344.202 140.52C344.362 140.64 344.442 140.8 344.442 141V170.28C344.442 170.48 344.362 170.66 344.202 170.82C344.082 170.94 343.922 171 343.722 171H338.202ZM368.675 145.26C368.675 145.46 368.595 145.64 368.435 145.8C368.315 145.92 368.155 145.98 367.955 145.98H361.835C361.635 145.98 361.535 146.08 361.535 146.28V160.74C361.535 162.26 361.855 163.36 362.495 164.04C363.175 164.72 364.235 165.06 365.675 165.06H367.475C367.675 165.06 367.835 165.14 367.955 165.3C368.115 165.42 368.195 165.58 368.195 165.78V170.28C368.195 170.72 367.955 170.98 367.475 171.06L364.355 171.12C361.195 171.12 358.835 170.58 357.275 169.5C355.715 168.42 354.915 166.38 354.875 163.38V146.28C354.875 146.08 354.775 145.98 354.575 145.98H351.155C350.955 145.98 350.775 145.92 350.615 145.8C350.495 145.64 350.435 145.46 350.435 145.26V141.06C350.435 140.86 350.495 140.7 350.615 140.58C350.775 140.42 350.955 140.34 351.155 140.34H354.575C354.775 140.34 354.875 140.24 354.875 140.04V133.02C354.875 132.82 354.935 132.66 355.055 132.54C355.215 132.38 355.395 132.3 355.595 132.3H360.815C361.015 132.3 361.175 132.38 361.295 132.54C361.455 132.66 361.535 132.82 361.535 133.02V140.04C361.535 140.24 361.635 140.34 361.835 140.34H367.955C368.155 140.34 368.315 140.42 368.435 140.58C368.595 140.7 368.675 140.86 368.675 141.06V145.26ZM378.817 136.14C377.577 136.14 376.557 135.74 375.757 134.94C374.957 134.14 374.557 133.12 374.557 131.88C374.557 130.64 374.957 129.62 375.757 128.82C376.557 128.02 377.577 127.62 378.817 127.62C380.057 127.62 381.077 128.02 381.877 128.82C382.677 129.62 383.077 130.64 383.077 131.88C383.077 133.12 382.677 134.14 381.877 134.94C381.077 135.74 380.057 136.14 378.817 136.14ZM375.937 171C375.737 171 375.557 170.94 375.397 170.82C375.277 170.66 375.217 170.48 375.217 170.28V141C375.217 140.8 375.277 140.64 375.397 140.52C375.557 140.36 375.737 140.28 375.937 140.28H381.457C381.657 140.28 381.817 140.36 381.937 140.52C382.097 140.64 382.177 140.8 382.177 141V170.28C382.177 170.48 382.097 170.66 381.937 170.82C381.817 170.94 381.657 171 381.457 171H375.937ZM403.17 171.48C400.01 171.48 397.29 170.68 395.01 169.08C392.77 167.48 391.19 165.26 390.27 162.42C389.59 160.26 389.25 157.98 389.25 155.58C389.25 153.02 389.57 150.74 390.21 148.74C391.13 145.94 392.73 143.76 395.01 142.2C397.29 140.64 400.03 139.86 403.23 139.86C406.27 139.86 408.89 140.64 411.09 142.2C413.33 143.76 414.91 145.92 415.83 148.68C416.55 150.6 416.91 152.88 416.91 155.52C416.91 158.04 416.57 160.32 415.89 162.36C414.97 165.2 413.39 167.44 411.15 169.08C408.91 170.68 406.25 171.48 403.17 171.48ZM403.17 165.48C404.65 165.48 405.91 165.06 406.95 164.22C408.03 163.38 408.81 162.2 409.29 160.68C409.69 159.36 409.89 157.68 409.89 155.64C409.89 153.48 409.69 151.8 409.29 150.6C408.85 149.08 408.09 147.92 407.01 147.12C405.93 146.28 404.61 145.86 403.05 145.86C401.57 145.86 400.29 146.28 399.21 147.12C398.13 147.92 397.35 149.08 396.87 150.6C396.47 152 396.27 153.68 396.27 155.64C396.27 157.6 396.47 159.28 396.87 160.68C397.31 162.2 398.07 163.38 399.15 164.22C400.27 165.06 401.61 165.48 403.17 165.48ZM438.19 139.86C441.43 139.86 444.01 140.82 445.93 142.74C447.89 144.66 448.87 147.28 448.87 150.6V170.28C448.87 170.48 448.79 170.66 448.63 170.82C448.51 170.94 448.35 171 448.15 171H442.63C442.43 171 442.25 170.94 442.09 170.82C441.97 170.66 441.91 170.48 441.91 170.28V152.04C441.91 150.2 441.39 148.72 440.35 147.6C439.31 146.44 437.93 145.86 436.21 145.86C434.49 145.86 433.09 146.42 432.01 147.54C430.97 148.66 430.45 150.14 430.45 151.98V170.28C430.45 170.48 430.37 170.66 430.21 170.82C430.09 170.94 429.93 171 429.73 171H424.21C424.01 171 423.83 170.94 423.67 170.82C423.55 170.66 423.49 170.48 423.49 170.28V141.06C423.49 140.86 423.55 140.7 423.67 140.58C423.83 140.42 424.01 140.34 424.21 140.34H429.73C429.93 140.34 430.09 140.42 430.21 140.58C430.37 140.7 430.45 140.86 430.45 141.06V142.98C430.45 143.1 430.49 143.18 430.57 143.22C430.65 143.26 430.71 143.22 430.75 143.1C432.39 140.94 434.87 139.86 438.19 139.86ZM155.961 243C155.561 243 155.301 242.8 155.181 242.4L153.201 235.98C153.121 235.82 153.021 235.74 152.901 235.74H137.061C136.941 235.74 136.841 235.82 136.761 235.98L134.781 242.4C134.661 242.8 134.401 243 134.001 243H128.001C127.761 243 127.581 242.94 127.461 242.82C127.341 242.66 127.321 242.44 127.401 242.16L140.421 201.6C140.541 201.2 140.801 201 141.201 201H148.701C149.101 201 149.361 201.2 149.481 201.6L162.561 242.16C162.601 242.24 162.621 242.34 162.621 242.46C162.621 242.82 162.401 243 161.961 243H155.961ZM138.621 229.92C138.581 230.16 138.661 230.28 138.861 230.28H151.041C151.281 230.28 151.361 230.16 151.281 229.92L145.101 209.82C145.061 209.66 145.001 209.58 144.921 209.58C144.841 209.58 144.781 209.66 144.741 209.82L138.621 229.92ZM182.447 211.98C183.727 211.98 184.847 212.24 185.807 212.76C186.127 212.92 186.247 213.22 186.167 213.66L185.147 219.06C185.107 219.54 184.827 219.68 184.307 219.48C183.707 219.28 183.007 219.18 182.207 219.18C181.687 219.18 181.287 219.2 181.007 219.24C179.327 219.32 177.927 219.92 176.807 221.04C175.687 222.12 175.127 223.54 175.127 225.3V242.28C175.127 242.48 175.047 242.66 174.887 242.82C174.767 242.94 174.607 243 174.407 243H168.887C168.687 243 168.507 242.94 168.347 242.82C168.227 242.66 168.167 242.48 168.167 242.28V213.06C168.167 212.86 168.227 212.7 168.347 212.58C168.507 212.42 168.687 212.34 168.887 212.34H174.407C174.607 212.34 174.767 212.42 174.887 212.58C175.047 212.7 175.127 212.86 175.127 213.06V215.76C175.127 215.92 175.147 216.02 175.187 216.06C175.267 216.06 175.347 216 175.427 215.88C177.107 213.28 179.447 211.98 182.447 211.98ZM194.686 208.14C193.446 208.14 192.426 207.74 191.626 206.94C190.826 206.14 190.426 205.12 190.426 203.88C190.426 202.64 190.826 201.62 191.626 200.82C192.426 200.02 193.446 199.62 194.686 199.62C195.926 199.62 196.946 200.02 197.746 200.82C198.546 201.62 198.946 202.64 198.946 203.88C198.946 205.12 198.546 206.14 197.746 206.94C196.946 207.74 195.926 208.14 194.686 208.14ZM191.806 243C191.606 243 191.426 242.94 191.266 242.82C191.146 242.66 191.086 242.48 191.086 242.28V213C191.086 212.8 191.146 212.64 191.266 212.52C191.426 212.36 191.606 212.28 191.806 212.28H197.326C197.526 212.28 197.686 212.36 197.806 212.52C197.966 212.64 198.046 212.8 198.046 213V242.28C198.046 242.48 197.966 242.66 197.806 242.82C197.686 242.94 197.526 243 197.326 243H191.806ZM217.719 211.86C220.239 211.86 222.459 212.3 224.379 213.18C226.299 214.06 227.779 215.28 228.819 216.84C229.859 218.36 230.379 220.1 230.379 222.06V242.28C230.379 242.48 230.299 242.66 230.139 242.82C230.019 242.94 229.859 243 229.659 243H224.139C223.939 243 223.759 242.94 223.599 242.82C223.479 242.66 223.419 242.48 223.419 242.28V240.36C223.419 240.24 223.379 240.18 223.299 240.18C223.219 240.14 223.139 240.16 223.059 240.24C221.099 242.4 218.259 243.48 214.539 243.48C211.539 243.48 209.059 242.72 207.099 241.2C205.179 239.68 204.219 237.42 204.219 234.42C204.219 231.3 205.299 228.88 207.459 227.16C209.659 225.4 212.739 224.52 216.699 224.52H223.119C223.319 224.52 223.419 224.42 223.419 224.22V222.78C223.419 221.22 222.959 220.02 222.039 219.18C221.119 218.3 219.739 217.86 217.899 217.86C216.379 217.86 215.139 218.14 214.179 218.7C213.259 219.22 212.679 219.96 212.439 220.92C212.319 221.4 212.039 221.6 211.599 221.52L205.779 220.8C205.579 220.76 205.399 220.7 205.239 220.62C205.119 220.5 205.079 220.36 205.119 220.2C205.439 217.76 206.739 215.76 209.019 214.2C211.339 212.64 214.239 211.86 217.719 211.86ZM216.279 237.96C218.239 237.96 219.919 237.44 221.319 236.4C222.719 235.36 223.419 234.04 223.419 232.44V229.62C223.419 229.42 223.319 229.32 223.119 229.32H218.079C215.959 229.32 214.279 229.72 213.039 230.52C211.839 231.32 211.239 232.46 211.239 233.94C211.239 235.22 211.699 236.22 212.619 236.94C213.579 237.62 214.799 237.96 216.279 237.96ZM263.598 243.48C260.478 243.48 257.758 242.98 255.438 241.98C253.118 240.98 251.318 239.58 250.038 237.78C248.798 235.98 248.178 233.86 248.178 231.42V229.92C248.178 229.72 248.238 229.56 248.358 229.44C248.518 229.28 248.698 229.2 248.898 229.2H254.238C254.438 229.2 254.598 229.28 254.718 229.44C254.878 229.56 254.958 229.72 254.958 229.92V231.06C254.958 232.9 255.778 234.44 257.418 235.68C259.058 236.88 261.298 237.48 264.138 237.48C266.578 237.48 268.418 236.96 269.658 235.92C270.898 234.88 271.518 233.54 271.518 231.9C271.518 230.78 271.178 229.84 270.498 229.08C269.818 228.28 268.838 227.56 267.558 226.92C266.318 226.28 264.438 225.48 261.918 224.52C259.078 223.48 256.778 222.5 255.018 221.58C253.258 220.66 251.778 219.42 250.578 217.86C249.418 216.26 248.838 214.28 248.838 211.92C248.838 208.4 250.118 205.62 252.678 203.58C255.238 201.54 258.658 200.52 262.938 200.52C265.938 200.52 268.578 201.04 270.858 202.08C273.178 203.12 274.978 204.58 276.258 206.46C277.538 208.3 278.178 210.44 278.178 212.88V213.9C278.178 214.1 278.098 214.28 277.938 214.44C277.818 214.56 277.658 214.62 277.458 214.62H272.058C271.858 214.62 271.678 214.56 271.518 214.44C271.398 214.28 271.338 214.1 271.338 213.9V213.24C271.338 211.36 270.558 209.78 268.998 208.5C267.478 207.18 265.358 206.52 262.638 206.52C260.438 206.52 258.718 206.98 257.478 207.9C256.278 208.82 255.678 210.12 255.678 211.8C255.678 213 255.998 213.98 256.638 214.74C257.278 215.5 258.238 216.2 259.518 216.84C260.798 217.44 262.778 218.22 265.458 219.18C268.298 220.26 270.558 221.24 272.238 222.12C273.958 223 275.418 224.24 276.618 225.84C277.858 227.4 278.478 229.36 278.478 231.72C278.478 235.32 277.138 238.18 274.458 240.3C271.818 242.42 268.198 243.48 263.598 243.48ZM301.087 217.26C301.087 217.46 301.007 217.64 300.847 217.8C300.727 217.92 300.567 217.98 300.367 217.98H294.247C294.047 217.98 293.947 218.08 293.947 218.28V232.74C293.947 234.26 294.267 235.36 294.907 236.04C295.587 236.72 296.647 237.06 298.087 237.06H299.887C300.087 237.06 300.247 237.14 300.367 237.3C300.527 237.42 300.607 237.58 300.607 237.78V242.28C300.607 242.72 300.367 242.98 299.887 243.06L296.767 243.12C293.607 243.12 291.247 242.58 289.687 241.5C288.127 240.42 287.327 238.38 287.287 235.38V218.28C287.287 218.08 287.187 217.98 286.987 217.98H283.567C283.367 217.98 283.187 217.92 283.027 217.8C282.907 217.64 282.847 217.46 282.847 217.26V213.06C282.847 212.86 282.907 212.7 283.027 212.58C283.187 212.42 283.367 212.34 283.567 212.34H286.987C287.187 212.34 287.287 212.24 287.287 212.04V205.02C287.287 204.82 287.347 204.66 287.467 204.54C287.627 204.38 287.807 204.3 288.007 204.3H293.227C293.427 204.3 293.587 204.38 293.707 204.54C293.867 204.66 293.947 204.82 293.947 205.02V212.04C293.947 212.24 294.047 212.34 294.247 212.34H300.367C300.567 212.34 300.727 212.42 300.847 212.58C301.007 212.7 301.087 212.86 301.087 213.06V217.26ZM318.969 211.86C321.489 211.86 323.709 212.3 325.629 213.18C327.549 214.06 329.029 215.28 330.069 216.84C331.109 218.36 331.629 220.1 331.629 222.06V242.28C331.629 242.48 331.549 242.66 331.389 242.82C331.269 242.94 331.109 243 330.909 243H325.389C325.189 243 325.009 242.94 324.849 242.82C324.729 242.66 324.669 242.48 324.669 242.28V240.36C324.669 240.24 324.629 240.18 324.549 240.18C324.469 240.14 324.389 240.16 324.309 240.24C322.349 242.4 319.509 243.48 315.789 243.48C312.789 243.48 310.309 242.72 308.349 241.2C306.429 239.68 305.469 237.42 305.469 234.42C305.469 231.3 306.549 228.88 308.709 227.16C310.909 225.4 313.989 224.52 317.949 224.52H324.369C324.569 224.52 324.669 224.42 324.669 224.22V222.78C324.669 221.22 324.209 220.02 323.289 219.18C322.369 218.3 320.989 217.86 319.149 217.86C317.629 217.86 316.389 218.14 315.429 218.7C314.509 219.22 313.929 219.96 313.689 220.92C313.569 221.4 313.289 221.6 312.849 221.52L307.029 220.8C306.829 220.76 306.649 220.7 306.489 220.62C306.369 220.5 306.329 220.36 306.369 220.2C306.689 217.76 307.989 215.76 310.269 214.2C312.589 212.64 315.489 211.86 318.969 211.86ZM317.529 237.96C319.489 237.96 321.169 237.44 322.569 236.4C323.969 235.36 324.669 234.04 324.669 232.44V229.62C324.669 229.42 324.569 229.32 324.369 229.32H319.329C317.209 229.32 315.529 229.72 314.289 230.52C313.089 231.32 312.489 232.46 312.489 233.94C312.489 235.22 312.949 236.22 313.869 236.94C314.829 237.62 316.049 237.96 317.529 237.96ZM354.408 217.26C354.408 217.46 354.328 217.64 354.168 217.8C354.048 217.92 353.888 217.98 353.688 217.98H347.568C347.368 217.98 347.268 218.08 347.268 218.28V232.74C347.268 234.26 347.588 235.36 348.228 236.04C348.908 236.72 349.968 237.06 351.408 237.06H353.208C353.408 237.06 353.568 237.14 353.688 237.3C353.848 237.42 353.928 237.58 353.928 237.78V242.28C353.928 242.72 353.688 242.98 353.208 243.06L350.088 243.12C346.928 243.12 344.568 242.58 343.008 241.5C341.448 240.42 340.648 238.38 340.608 235.38V218.28C340.608 218.08 340.508 217.98 340.308 217.98H336.888C336.688 217.98 336.508 217.92 336.348 217.8C336.228 217.64 336.168 217.46 336.168 217.26V213.06C336.168 212.86 336.228 212.7 336.348 212.58C336.508 212.42 336.688 212.34 336.888 212.34H340.308C340.508 212.34 340.608 212.24 340.608 212.04V205.02C340.608 204.82 340.668 204.66 340.788 204.54C340.948 204.38 341.128 204.3 341.328 204.3H346.548C346.748 204.3 346.908 204.38 347.028 204.54C347.188 204.66 347.268 204.82 347.268 205.02V212.04C347.268 212.24 347.368 212.34 347.568 212.34H353.688C353.888 212.34 354.048 212.42 354.168 212.58C354.328 212.7 354.408 212.86 354.408 213.06V217.26ZM371.989 243.36C369.469 243.36 367.249 243 365.329 242.28C363.449 241.52 361.989 240.5 360.949 239.22C359.909 237.9 359.389 236.44 359.389 234.84V234.3C359.389 234.1 359.449 233.94 359.569 233.82C359.729 233.66 359.909 233.58 360.109 233.58H365.389C365.589 233.58 365.749 233.66 365.869 233.82C366.029 233.94 366.109 234.1 366.109 234.3V234.42C366.109 235.42 366.649 236.3 367.729 237.06C368.849 237.78 370.249 238.14 371.929 238.14C373.529 238.14 374.829 237.82 375.829 237.18C376.829 236.5 377.329 235.66 377.329 234.66C377.329 233.74 376.909 233.06 376.069 232.62C375.269 232.14 373.949 231.64 372.109 231.12L369.829 230.4C367.789 229.8 366.069 229.16 364.669 228.48C363.269 227.8 362.089 226.88 361.129 225.72C360.169 224.52 359.689 223 359.689 221.16C359.689 218.36 360.789 216.14 362.989 214.5C365.189 212.82 368.089 211.98 371.689 211.98C374.129 211.98 376.269 212.38 378.109 213.18C379.949 213.94 381.369 215.02 382.369 216.42C383.369 217.78 383.869 219.34 383.869 221.1C383.869 221.3 383.789 221.48 383.629 221.64C383.509 221.76 383.349 221.82 383.149 221.82H378.049C377.849 221.82 377.669 221.76 377.509 221.64C377.389 221.48 377.329 221.3 377.329 221.1C377.329 220.06 376.809 219.2 375.769 218.52C374.769 217.8 373.389 217.44 371.629 217.44C370.069 217.44 368.789 217.74 367.789 218.34C366.829 218.9 366.349 219.7 366.349 220.74C366.349 221.7 366.809 222.44 367.729 222.96C368.689 223.44 370.269 223.98 372.469 224.58L373.789 224.94C375.909 225.58 377.689 226.24 379.129 226.92C380.569 227.56 381.789 228.48 382.789 229.68C383.789 230.84 384.289 232.36 384.289 234.24C384.289 237.08 383.169 239.32 380.929 240.96C378.689 242.56 375.709 243.36 371.989 243.36Z" fill="white"/>
</svg>
