<svg width="8" height="8" viewBox="0 0 8 8" fill="none" xmlns="http://www.w3.org/2000/svg">
<g clip-path="url(#clip0_203_180)">
<path d="M4.00002 7.33332C5.84102 7.33332 7.33335 5.84099 7.33335 3.99999C7.33335 2.15899 5.84102 0.666656 4.00002 0.666656C2.15902 0.666656 0.666687 2.15899 0.666687 3.99999C0.666687 5.84099 2.15902 7.33332 4.00002 7.33332Z" stroke="#1163B2" stroke-width="0.5"/>
<path d="M5.16668 2.99998L5.22401 3.05732C5.66835 3.50165 5.89068 3.72398 5.89068 3.99998C5.89068 4.27598 5.66835 4.49832 5.22401 4.94265L5.16668 4.99998M4.43135 2.38998L4.00001 3.99998L3.56868 5.60998M2.83335 2.99998L2.77635 3.05732C2.33168 3.50165 2.10968 3.72398 2.10968 3.99998C2.10968 4.27598 2.33168 4.49832 2.77635 4.94265L2.83335 4.99998" stroke="#1163B2" stroke-width="0.5" stroke-linecap="round"/>
</g>
<defs>
<clipPath id="clip0_203_180">
<rect width="8" height="8" fill="white"/>
</clipPath>
</defs>
</svg>
