<svg width="3000" height="2000" viewBox="0 0 3000 2000" fill="none" xmlns="http://www.w3.org/2000/svg">
<rect opacity="0.7" width="3000" height="2000" fill="#0C4072"/>
<path d="M535.896 905.56C519.896 905.56 505.816 902.467 493.656 896.28C481.496 889.88 472.11 881.027 465.496 869.72C458.883 858.413 455.576 845.293 455.576 830.36V751.32C455.576 736.387 458.883 723.267 465.496 711.96C472.11 700.653 481.496 691.907 493.656 685.72C505.816 679.533 519.896 676.44 535.896 676.44C551.683 676.44 565.656 679.427 577.816 685.4C589.976 691.373 599.363 699.8 605.976 710.68C612.59 721.56 615.896 734.147 615.896 748.44C615.896 749.507 615.47 750.467 614.616 751.32C613.976 751.96 613.123 752.28 612.056 752.28L582.616 753.88C580.056 753.88 578.776 752.707 578.776 750.36C578.776 737.773 574.83 727.64 566.936 719.96C559.256 712.28 548.91 708.44 535.896 708.44C522.883 708.44 512.43 712.28 504.536 719.96C496.643 727.64 492.696 737.773 492.696 750.36V831.96C492.696 844.333 496.643 854.36 504.536 862.04C512.43 869.72 522.883 873.56 535.896 873.56C548.91 873.56 559.256 869.827 566.936 862.36C574.83 854.68 578.776 844.547 578.776 831.96C578.776 829.613 580.056 828.44 582.616 828.44L612.056 829.72C613.123 829.72 613.976 830.04 614.616 830.68C615.47 831.32 615.896 832.067 615.896 832.92C615.896 847.427 612.59 860.227 605.976 871.32C599.363 882.2 589.976 890.627 577.816 896.6C565.656 902.573 551.683 905.56 535.896 905.56ZM721.311 905.56C704.458 905.56 689.951 901.293 677.791 892.76C665.845 884.227 657.418 872.387 652.511 857.24C648.885 845.72 647.071 833.56 647.071 820.76C647.071 807.107 648.778 794.947 652.191 784.28C657.098 769.347 665.631 757.72 677.791 749.4C689.951 741.08 704.565 736.92 721.631 736.92C737.845 736.92 751.818 741.08 763.551 749.4C775.498 757.72 783.925 769.24 788.831 783.96C792.671 794.2 794.591 806.36 794.591 820.44C794.591 833.88 792.778 846.04 789.151 856.92C784.245 872.067 775.818 884.013 763.871 892.76C751.925 901.293 737.738 905.56 721.311 905.56ZM721.311 873.56C729.205 873.56 735.925 871.32 741.471 866.84C747.231 862.36 751.391 856.067 753.951 847.96C756.085 840.92 757.151 831.96 757.151 821.08C757.151 809.56 756.085 800.6 753.951 794.2C751.605 786.093 747.551 779.907 741.791 775.64C736.031 771.16 728.991 768.92 720.671 768.92C712.778 768.92 705.951 771.16 700.191 775.64C694.431 779.907 690.271 786.093 687.711 794.2C685.578 801.667 684.511 810.627 684.511 821.08C684.511 831.533 685.578 840.493 687.711 847.96C690.058 856.067 694.111 862.36 699.871 866.84C705.845 871.32 712.991 873.56 721.311 873.56ZM890.484 904.92C877.044 904.92 865.204 903 854.964 899.16C844.937 895.107 837.15 889.667 831.604 882.84C826.057 875.8 823.284 868.013 823.284 859.48V856.6C823.284 855.533 823.604 854.68 824.244 854.04C825.097 853.187 826.057 852.76 827.124 852.76H855.284C856.35 852.76 857.204 853.187 857.844 854.04C858.697 854.68 859.124 855.533 859.124 856.6V857.24C859.124 862.573 862.004 867.267 867.764 871.32C873.737 875.16 881.204 877.08 890.164 877.08C898.697 877.08 905.63 875.373 910.964 871.96C916.297 868.333 918.964 863.853 918.964 858.52C918.964 853.613 916.724 849.987 912.244 847.64C907.977 845.08 900.937 842.413 891.124 839.64L878.964 835.8C868.084 832.6 858.91 829.187 851.444 825.56C843.977 821.933 837.684 817.027 832.564 810.84C827.444 804.44 824.884 796.333 824.884 786.52C824.884 771.587 830.75 759.747 842.484 751C854.217 742.04 869.684 737.56 888.884 737.56C901.897 737.56 913.31 739.693 923.124 743.96C932.937 748.013 940.51 753.773 945.844 761.24C951.177 768.493 953.844 776.813 953.844 786.2C953.844 787.267 953.417 788.227 952.564 789.08C951.924 789.72 951.07 790.04 950.004 790.04H922.804C921.737 790.04 920.777 789.72 919.924 789.08C919.284 788.227 918.964 787.267 918.964 786.2C918.964 780.653 916.19 776.067 910.644 772.44C905.31 768.6 897.95 766.68 888.564 766.68C880.244 766.68 873.417 768.28 868.084 771.48C862.964 774.467 860.404 778.733 860.404 784.28C860.404 789.4 862.857 793.347 867.764 796.12C872.884 798.68 881.31 801.56 893.044 804.76L900.084 806.68C911.39 810.093 920.884 813.613 928.564 817.24C936.244 820.653 942.75 825.56 948.084 831.96C953.417 838.147 956.084 846.253 956.084 856.28C956.084 871.427 950.11 883.373 938.164 892.12C926.217 900.653 910.324 904.92 890.484 904.92ZM1073.9 765.72C1073.9 766.787 1073.48 767.747 1072.62 768.6C1071.98 769.24 1071.13 769.56 1070.06 769.56H1037.42C1036.36 769.56 1035.82 770.093 1035.82 771.16V848.28C1035.82 856.387 1037.53 862.253 1040.94 865.88C1044.57 869.507 1050.22 871.32 1057.9 871.32H1067.5C1068.57 871.32 1069.42 871.747 1070.06 872.6C1070.92 873.24 1071.34 874.093 1071.34 875.16V899.16C1071.34 901.507 1070.06 902.893 1067.5 903.32L1050.86 903.64C1034.01 903.64 1021.42 900.76 1013.1 895C1004.78 889.24 1000.52 878.36 1000.3 862.36V771.16C1000.3 770.093 999.77 769.56 998.704 769.56H980.464C979.397 769.56 978.437 769.24 977.584 768.6C976.944 767.747 976.624 766.787 976.624 765.72V743.32C976.624 742.253 976.944 741.4 977.584 740.76C978.437 739.907 979.397 739.48 980.464 739.48H998.704C999.77 739.48 1000.3 738.947 1000.3 737.88V700.44C1000.3 699.373 1000.62 698.52 1001.26 697.88C1002.12 697.027 1003.08 696.6 1004.14 696.6H1031.98C1033.05 696.6 1033.9 697.027 1034.54 697.88C1035.4 698.52 1035.82 699.373 1035.82 700.44V737.88C1035.82 738.947 1036.36 739.48 1037.42 739.48H1070.06C1071.13 739.48 1071.98 739.907 1072.62 740.76C1073.48 741.4 1073.9 742.253 1073.9 743.32V765.72ZM1249.33 905.56C1233.33 905.56 1219.25 902.467 1207.09 896.28C1194.93 889.88 1185.55 881.027 1178.93 869.72C1172.32 858.413 1169.01 845.293 1169.01 830.36V751.32C1169.01 736.387 1172.32 723.267 1178.93 711.96C1185.55 700.653 1194.93 691.907 1207.09 685.72C1219.25 679.533 1233.33 676.44 1249.33 676.44C1265.12 676.44 1279.09 679.427 1291.25 685.4C1303.41 691.373 1312.8 699.8 1319.41 710.68C1326.03 721.56 1329.33 734.147 1329.33 748.44C1329.33 749.507 1328.91 750.467 1328.05 751.32C1327.41 751.96 1326.56 752.28 1325.49 752.28L1296.05 753.88C1293.49 753.88 1292.21 752.707 1292.21 750.36C1292.21 737.773 1288.27 727.64 1280.37 719.96C1272.69 712.28 1262.35 708.44 1249.33 708.44C1236.32 708.44 1225.87 712.28 1217.97 719.96C1210.08 727.64 1206.13 737.773 1206.13 750.36V831.96C1206.13 844.333 1210.08 854.36 1217.97 862.04C1225.87 869.72 1236.32 873.56 1249.33 873.56C1262.35 873.56 1272.69 869.827 1280.37 862.36C1288.27 854.68 1292.21 844.547 1292.21 831.96C1292.21 829.613 1293.49 828.44 1296.05 828.44L1325.49 829.72C1326.56 829.72 1327.41 830.04 1328.05 830.68C1328.91 831.32 1329.33 832.067 1329.33 832.92C1329.33 847.427 1326.03 860.227 1319.41 871.32C1312.8 882.2 1303.41 890.627 1291.25 896.6C1279.09 902.573 1265.12 905.56 1249.33 905.56ZM1503.23 802.84C1504.08 808.173 1504.51 814.147 1504.51 820.76L1504.19 830.68C1504.19 833.24 1502.91 834.52 1500.35 834.52H1400.19C1399.12 834.52 1398.59 835.053 1398.59 836.12C1399.23 843.16 1400.19 847.96 1401.47 850.52C1406.59 865.88 1419.07 873.667 1438.91 873.88C1453.42 873.88 1464.94 867.907 1473.47 855.96C1474.32 854.68 1475.39 854.04 1476.67 854.04C1477.52 854.04 1478.27 854.36 1478.91 855L1498.75 871.32C1500.67 872.813 1500.99 874.52 1499.71 876.44C1493.1 885.827 1484.24 893.08 1473.15 898.2C1462.27 903.32 1450.11 905.88 1436.67 905.88C1420.03 905.88 1405.84 902.147 1394.11 894.68C1382.59 887.213 1374.16 876.76 1368.83 863.32C1363.92 851.8 1361.47 835.8 1361.47 815.32C1361.47 802.947 1362.75 792.92 1365.31 785.24C1369.58 770.307 1377.58 758.573 1389.31 750.04C1401.26 741.293 1415.55 736.92 1432.19 736.92C1474.22 736.92 1497.9 758.893 1503.23 802.84ZM1432.19 768.92C1424.3 768.92 1417.68 770.947 1412.35 775C1407.23 778.84 1403.6 784.28 1401.47 791.32C1400.19 794.947 1399.34 799.64 1398.91 805.4C1398.48 806.467 1398.91 807 1400.19 807H1465.15C1466.22 807 1466.75 806.467 1466.75 805.4C1466.32 800.067 1465.68 796.013 1464.83 793.24C1462.91 785.56 1459.07 779.587 1453.31 775.32C1447.76 771.053 1440.72 768.92 1432.19 768.92ZM1616.83 736.92C1634.11 736.92 1647.87 742.04 1658.11 752.28C1668.57 762.52 1673.79 776.493 1673.79 794.2V899.16C1673.79 900.227 1673.37 901.187 1672.51 902.04C1671.87 902.68 1671.02 903 1669.95 903H1640.51C1639.45 903 1638.49 902.68 1637.63 902.04C1636.99 901.187 1636.67 900.227 1636.67 899.16V801.88C1636.67 792.067 1633.9 784.173 1628.35 778.2C1622.81 772.013 1615.45 768.92 1606.27 768.92C1597.1 768.92 1589.63 771.907 1583.87 777.88C1578.33 783.853 1575.55 791.747 1575.55 801.56V899.16C1575.55 900.227 1575.13 901.187 1574.27 902.04C1573.63 902.68 1572.78 903 1571.71 903H1542.27C1541.21 903 1540.25 902.68 1539.39 902.04C1538.75 901.187 1538.43 900.227 1538.43 899.16V743.32C1538.43 742.253 1538.75 741.4 1539.39 740.76C1540.25 739.907 1541.21 739.48 1542.27 739.48H1571.71C1572.78 739.48 1573.63 739.907 1574.27 740.76C1575.13 741.4 1575.55 742.253 1575.55 743.32V753.56C1575.55 754.2 1575.77 754.627 1576.19 754.84C1576.62 755.053 1576.94 754.84 1577.15 754.2C1585.9 742.68 1599.13 736.92 1616.83 736.92ZM1799.22 765.72C1799.22 766.787 1798.79 767.747 1797.94 768.6C1797.3 769.24 1796.44 769.56 1795.38 769.56H1762.74C1761.67 769.56 1761.14 770.093 1761.14 771.16V848.28C1761.14 856.387 1762.84 862.253 1766.26 865.88C1769.88 869.507 1775.54 871.32 1783.22 871.32H1792.82C1793.88 871.32 1794.74 871.747 1795.38 872.6C1796.23 873.24 1796.66 874.093 1796.66 875.16V899.16C1796.66 901.507 1795.38 902.893 1792.82 903.32L1776.18 903.64C1759.32 903.64 1746.74 900.76 1738.42 895C1730.1 889.24 1725.83 878.36 1725.62 862.36V771.16C1725.62 770.093 1725.08 769.56 1724.02 769.56H1705.78C1704.71 769.56 1703.75 769.24 1702.9 768.6C1702.26 767.747 1701.94 766.787 1701.94 765.72V743.32C1701.94 742.253 1702.26 741.4 1702.9 740.76C1703.75 739.907 1704.71 739.48 1705.78 739.48H1724.02C1725.08 739.48 1725.62 738.947 1725.62 737.88V700.44C1725.62 699.373 1725.94 698.52 1726.58 697.88C1727.43 697.027 1728.39 696.6 1729.46 696.6H1757.3C1758.36 696.6 1759.22 697.027 1759.86 697.88C1760.71 698.52 1761.14 699.373 1761.14 700.44V737.88C1761.14 738.947 1761.67 739.48 1762.74 739.48H1795.38C1796.44 739.48 1797.3 739.907 1797.94 740.76C1798.79 741.4 1799.22 742.253 1799.22 743.32V765.72ZM1966.98 802.84C1967.83 808.173 1968.26 814.147 1968.26 820.76L1967.94 830.68C1967.94 833.24 1966.66 834.52 1964.1 834.52H1863.94C1862.87 834.52 1862.34 835.053 1862.34 836.12C1862.98 843.16 1863.94 847.96 1865.22 850.52C1870.34 865.88 1882.82 873.667 1902.66 873.88C1917.17 873.88 1928.69 867.907 1937.22 855.96C1938.07 854.68 1939.14 854.04 1940.42 854.04C1941.27 854.04 1942.02 854.36 1942.66 855L1962.5 871.32C1964.42 872.813 1964.74 874.52 1963.46 876.44C1956.85 885.827 1947.99 893.08 1936.9 898.2C1926.02 903.32 1913.86 905.88 1900.42 905.88C1883.78 905.88 1869.59 902.147 1857.86 894.68C1846.34 887.213 1837.91 876.76 1832.58 863.32C1827.67 851.8 1825.22 835.8 1825.22 815.32C1825.22 802.947 1826.5 792.92 1829.06 785.24C1833.33 770.307 1841.33 758.573 1853.06 750.04C1865.01 741.293 1879.3 736.92 1895.94 736.92C1937.97 736.92 1961.65 758.893 1966.98 802.84ZM1895.94 768.92C1888.05 768.92 1881.43 770.947 1876.1 775C1870.98 778.84 1867.35 784.28 1865.22 791.32C1863.94 794.947 1863.09 799.64 1862.66 805.4C1862.23 806.467 1862.66 807 1863.94 807H1928.9C1929.97 807 1930.5 806.467 1930.5 805.4C1930.07 800.067 1929.43 796.013 1928.58 793.24C1926.66 785.56 1922.82 779.587 1917.06 775.32C1911.51 771.053 1904.47 768.92 1895.94 768.92ZM2078.34 737.56C2085.17 737.56 2091.14 738.947 2096.26 741.72C2097.97 742.573 2098.61 744.173 2098.18 746.52L2092.74 775.32C2092.53 777.88 2091.04 778.627 2088.26 777.56C2085.06 776.493 2081.33 775.96 2077.06 775.96C2074.29 775.96 2072.16 776.067 2070.66 776.28C2061.7 776.707 2054.24 779.907 2048.26 785.88C2042.29 791.64 2039.3 799.213 2039.3 808.6V899.16C2039.3 900.227 2038.88 901.187 2038.02 902.04C2037.38 902.68 2036.53 903 2035.46 903H2006.02C2004.96 903 2004 902.68 2003.14 902.04C2002.5 901.187 2002.18 900.227 2002.18 899.16V743.32C2002.18 742.253 2002.5 741.4 2003.14 740.76C2004 739.907 2004.96 739.48 2006.02 739.48H2035.46C2036.53 739.48 2037.38 739.907 2038.02 740.76C2038.88 741.4 2039.3 742.253 2039.3 743.32V757.72C2039.3 758.573 2039.41 759.107 2039.62 759.32C2040.05 759.32 2040.48 759 2040.9 758.36C2049.86 744.493 2062.34 737.56 2078.34 737.56ZM2230.72 903C2228.59 903 2227.2 901.933 2226.56 899.8L2175.04 743.64C2174.83 743.213 2174.72 742.68 2174.72 742.04C2174.72 740.12 2175.89 739.16 2178.24 739.16H2210.88C2213.23 739.16 2214.72 740.227 2215.36 742.36L2246.4 849.24C2246.61 849.88 2246.93 850.2 2247.36 850.2C2247.79 850.2 2248.11 849.88 2248.32 849.24L2279.36 742.36C2280 740.227 2281.49 739.16 2283.84 739.16L2316.48 739.8C2317.76 739.8 2318.72 740.227 2319.36 741.08C2320 741.72 2320.11 742.787 2319.68 744.28L2268.48 899.8C2267.84 901.933 2266.45 903 2264.32 903H2230.72ZM2397.67 904.92C2384.23 904.92 2372.39 903 2362.15 899.16C2352.12 895.107 2344.34 889.667 2338.79 882.84C2333.24 875.8 2330.47 868.013 2330.47 859.48V856.6C2330.47 855.533 2330.79 854.68 2331.43 854.04C2332.28 853.187 2333.24 852.76 2334.31 852.76H2362.47C2363.54 852.76 2364.39 853.187 2365.03 854.04C2365.88 854.68 2366.31 855.533 2366.31 856.6V857.24C2366.31 862.573 2369.19 867.267 2374.95 871.32C2380.92 875.16 2388.39 877.08 2397.35 877.08C2405.88 877.08 2412.82 875.373 2418.15 871.96C2423.48 868.333 2426.15 863.853 2426.15 858.52C2426.15 853.613 2423.91 849.987 2419.43 847.64C2415.16 845.08 2408.12 842.413 2398.31 839.64L2386.15 835.8C2375.27 832.6 2366.1 829.187 2358.63 825.56C2351.16 821.933 2344.87 817.027 2339.75 810.84C2334.63 804.44 2332.07 796.333 2332.07 786.52C2332.07 771.587 2337.94 759.747 2349.67 751C2361.4 742.04 2376.87 737.56 2396.07 737.56C2409.08 737.56 2420.5 739.693 2430.31 743.96C2440.12 748.013 2447.7 753.773 2453.03 761.24C2458.36 768.493 2461.03 776.813 2461.03 786.2C2461.03 787.267 2460.6 788.227 2459.75 789.08C2459.11 789.72 2458.26 790.04 2457.19 790.04H2429.99C2428.92 790.04 2427.96 789.72 2427.11 789.08C2426.47 788.227 2426.15 787.267 2426.15 786.2C2426.15 780.653 2423.38 776.067 2417.83 772.44C2412.5 768.6 2405.14 766.68 2395.75 766.68C2387.43 766.68 2380.6 768.28 2375.27 771.48C2370.15 774.467 2367.59 778.733 2367.59 784.28C2367.59 789.4 2370.04 793.347 2374.95 796.12C2380.07 798.68 2388.5 801.56 2400.23 804.76L2407.27 806.68C2418.58 810.093 2428.07 813.613 2435.75 817.24C2443.43 820.653 2449.94 825.56 2455.27 831.96C2460.6 838.147 2463.27 846.253 2463.27 856.28C2463.27 871.427 2457.3 883.373 2445.35 892.12C2433.4 900.653 2417.51 904.92 2397.67 904.92ZM2517.4 903.64C2510.79 903.64 2505.35 901.507 2501.08 897.24C2496.82 892.973 2494.68 887.533 2494.68 880.92C2494.68 874.307 2496.82 868.867 2501.08 864.6C2505.35 860.333 2510.79 858.2 2517.4 858.2C2524.02 858.2 2529.35 860.333 2533.4 864.6C2537.67 868.867 2539.8 874.307 2539.8 880.92C2539.8 887.533 2537.67 892.973 2533.4 897.24C2529.14 901.507 2523.8 903.64 2517.4 903.64ZM702.03 1129.68C715.47 1129.68 727.31 1132.45 737.55 1138C747.79 1143.55 755.683 1151.44 761.23 1161.68C766.99 1171.71 769.87 1183.33 769.87 1196.56C769.87 1209.57 766.99 1221.09 761.23 1231.12C755.47 1241.15 747.257 1248.93 736.59 1254.48C726.137 1259.81 713.977 1262.48 700.11 1262.48H648.91C647.843 1262.48 647.31 1263.01 647.31 1264.08V1350.16C647.31 1351.23 646.883 1352.19 646.03 1353.04C645.39 1353.68 644.537 1354 643.47 1354H614.03C612.963 1354 612.003 1353.68 611.15 1353.04C610.51 1352.19 610.19 1351.23 610.19 1350.16V1133.52C610.19 1132.45 610.51 1131.6 611.15 1130.96C612.003 1130.11 612.963 1129.68 614.03 1129.68H702.03ZM696.59 1232.4C707.47 1232.4 716.217 1229.2 722.83 1222.8C729.443 1216.4 732.75 1207.97 732.75 1197.52C732.75 1186.85 729.443 1178.21 722.83 1171.6C716.217 1164.99 707.47 1161.68 696.59 1161.68H648.91C647.843 1161.68 647.31 1162.21 647.31 1163.28V1230.8C647.31 1231.87 647.843 1232.4 648.91 1232.4H696.59ZM875.063 1188.56C881.889 1188.56 887.863 1189.95 892.983 1192.72C894.689 1193.57 895.329 1195.17 894.903 1197.52L889.463 1226.32C889.249 1228.88 887.756 1229.63 884.983 1228.56C881.783 1227.49 878.049 1226.96 873.783 1226.96C871.009 1226.96 868.876 1227.07 867.383 1227.28C858.423 1227.71 850.956 1230.91 844.983 1236.88C839.009 1242.64 836.023 1250.21 836.023 1259.6V1350.16C836.023 1351.23 835.596 1352.19 834.743 1353.04C834.103 1353.68 833.249 1354 832.183 1354H802.743C801.676 1354 800.716 1353.68 799.863 1353.04C799.223 1352.19 798.903 1351.23 798.903 1350.16V1194.32C798.903 1193.25 799.223 1192.4 799.863 1191.76C800.716 1190.91 801.676 1190.48 802.743 1190.48H832.183C833.249 1190.48 834.103 1190.91 834.743 1191.76C835.596 1192.4 836.023 1193.25 836.023 1194.32V1208.72C836.023 1209.57 836.129 1210.11 836.343 1210.32C836.769 1210.32 837.196 1210 837.623 1209.36C846.583 1195.49 859.063 1188.56 875.063 1188.56ZM985.53 1356.56C968.677 1356.56 954.17 1352.29 942.01 1343.76C930.063 1335.23 921.637 1323.39 916.73 1308.24C913.103 1296.72 911.29 1284.56 911.29 1271.76C911.29 1258.11 912.997 1245.95 916.41 1235.28C921.317 1220.35 929.85 1208.72 942.01 1200.4C954.17 1192.08 968.783 1187.92 985.85 1187.92C1002.06 1187.92 1016.04 1192.08 1027.77 1200.4C1039.72 1208.72 1048.14 1220.24 1053.05 1234.96C1056.89 1245.2 1058.81 1257.36 1058.81 1271.44C1058.81 1284.88 1057 1297.04 1053.37 1307.92C1048.46 1323.07 1040.04 1335.01 1028.09 1343.76C1016.14 1352.29 1001.96 1356.56 985.53 1356.56ZM985.53 1324.56C993.423 1324.56 1000.14 1322.32 1005.69 1317.84C1011.45 1313.36 1015.61 1307.07 1018.17 1298.96C1020.3 1291.92 1021.37 1282.96 1021.37 1272.08C1021.37 1260.56 1020.3 1251.6 1018.17 1245.2C1015.82 1237.09 1011.77 1230.91 1006.01 1226.64C1000.25 1222.16 993.21 1219.92 984.89 1219.92C976.997 1219.92 970.17 1222.16 964.41 1226.64C958.65 1230.91 954.49 1237.09 951.93 1245.2C949.797 1252.67 948.73 1261.63 948.73 1272.08C948.73 1282.53 949.797 1291.49 951.93 1298.96C954.277 1307.07 958.33 1313.36 964.09 1317.84C970.063 1322.32 977.21 1324.56 985.53 1324.56ZM1179.02 1190.16C1180.09 1190.16 1180.94 1190.59 1181.58 1191.44C1182.44 1192.08 1182.86 1192.93 1182.86 1194V1219.28C1182.86 1220.35 1182.44 1221.31 1181.58 1222.16C1180.94 1222.8 1180.09 1223.12 1179.02 1223.12H1147.34C1146.28 1223.12 1145.74 1223.65 1145.74 1224.72V1350.16C1145.74 1351.23 1145.32 1352.19 1144.46 1353.04C1143.82 1353.68 1142.97 1354 1141.9 1354H1112.46C1111.4 1354 1110.44 1353.68 1109.58 1353.04C1108.94 1352.19 1108.62 1351.23 1108.62 1350.16V1224.72C1108.62 1223.65 1108.09 1223.12 1107.02 1223.12H1087.18C1086.12 1223.12 1085.16 1222.8 1084.3 1222.16C1083.66 1221.31 1083.34 1220.35 1083.34 1219.28V1194C1083.34 1192.93 1083.66 1192.08 1084.3 1191.44C1085.16 1190.59 1086.12 1190.16 1087.18 1190.16H1107.02C1108.09 1190.16 1108.62 1189.63 1108.62 1188.56V1182.8C1108.62 1168.93 1110.44 1158.27 1114.06 1150.8C1117.69 1143.12 1123.66 1137.68 1131.98 1134.48C1140.3 1131.28 1152.04 1129.79 1167.18 1130H1178.38C1179.45 1130 1180.3 1130.43 1180.94 1131.28C1181.8 1131.92 1182.22 1132.77 1182.22 1133.84V1156.24C1182.22 1157.31 1181.8 1158.27 1180.94 1159.12C1180.3 1159.76 1179.45 1160.08 1178.38 1160.08H1170.06C1160.89 1160.08 1154.49 1161.89 1150.86 1165.52C1147.45 1169.15 1145.74 1175.76 1145.74 1185.36V1188.56C1145.74 1189.63 1146.28 1190.16 1147.34 1190.16H1179.02ZM1235.34 1168.08C1228.73 1168.08 1223.29 1165.95 1219.02 1161.68C1214.76 1157.41 1212.62 1151.97 1212.62 1145.36C1212.62 1138.75 1214.76 1133.31 1219.02 1129.04C1223.29 1124.77 1228.73 1122.64 1235.34 1122.64C1241.96 1122.64 1247.4 1124.77 1251.66 1129.04C1255.93 1133.31 1258.06 1138.75 1258.06 1145.36C1258.06 1151.97 1255.93 1157.41 1251.66 1161.68C1247.4 1165.95 1241.96 1168.08 1235.34 1168.08ZM1219.98 1354C1218.92 1354 1217.96 1353.68 1217.1 1353.04C1216.46 1352.19 1216.14 1351.23 1216.14 1350.16V1194C1216.14 1192.93 1216.46 1192.08 1217.1 1191.44C1217.96 1190.59 1218.92 1190.16 1219.98 1190.16H1249.42C1250.49 1190.16 1251.34 1190.59 1251.98 1191.44C1252.84 1192.08 1253.26 1192.93 1253.26 1194V1350.16C1253.26 1351.23 1252.84 1352.19 1251.98 1353.04C1251.34 1353.68 1250.49 1354 1249.42 1354H1219.98ZM1382.5 1216.72C1382.5 1217.79 1382.07 1218.75 1381.22 1219.6C1380.58 1220.24 1379.72 1220.56 1378.66 1220.56H1346.02C1344.95 1220.56 1344.42 1221.09 1344.42 1222.16V1299.28C1344.42 1307.39 1346.12 1313.25 1349.54 1316.88C1353.16 1320.51 1358.82 1322.32 1366.5 1322.32H1376.1C1377.16 1322.32 1378.02 1322.75 1378.66 1323.6C1379.51 1324.24 1379.94 1325.09 1379.94 1326.16V1350.16C1379.94 1352.51 1378.66 1353.89 1376.1 1354.32L1359.46 1354.64C1342.6 1354.64 1330.02 1351.76 1321.7 1346C1313.38 1340.24 1309.11 1329.36 1308.9 1313.36V1222.16C1308.9 1221.09 1308.36 1220.56 1307.3 1220.56H1289.06C1287.99 1220.56 1287.03 1220.24 1286.18 1219.6C1285.54 1218.75 1285.22 1217.79 1285.22 1216.72V1194.32C1285.22 1193.25 1285.54 1192.4 1286.18 1191.76C1287.03 1190.91 1287.99 1190.48 1289.06 1190.48H1307.3C1308.36 1190.48 1308.9 1189.95 1308.9 1188.88V1151.44C1308.9 1150.37 1309.22 1149.52 1309.86 1148.88C1310.71 1148.03 1311.67 1147.6 1312.74 1147.6H1340.58C1341.64 1147.6 1342.5 1148.03 1343.14 1148.88C1343.99 1149.52 1344.42 1150.37 1344.42 1151.44V1188.88C1344.42 1189.95 1344.95 1190.48 1346.02 1190.48H1378.66C1379.72 1190.48 1380.58 1190.91 1381.22 1191.76C1382.07 1192.4 1382.5 1193.25 1382.5 1194.32V1216.72ZM1557.93 1356.56C1541.93 1356.56 1527.85 1353.47 1515.69 1347.28C1503.53 1340.88 1494.14 1332.03 1487.53 1320.72C1480.91 1309.41 1477.61 1296.29 1477.61 1281.36V1202.32C1477.61 1187.39 1480.91 1174.27 1487.53 1162.96C1494.14 1151.65 1503.53 1142.91 1515.69 1136.72C1527.85 1130.53 1541.93 1127.44 1557.93 1127.44C1573.71 1127.44 1587.69 1130.43 1599.85 1136.4C1612.01 1142.37 1621.39 1150.8 1628.01 1161.68C1634.62 1172.56 1637.93 1185.15 1637.93 1199.44C1637.93 1200.51 1637.5 1201.47 1636.65 1202.32C1636.01 1202.96 1635.15 1203.28 1634.09 1203.28L1604.65 1204.88C1602.09 1204.88 1600.81 1203.71 1600.81 1201.36C1600.81 1188.77 1596.86 1178.64 1588.97 1170.96C1581.29 1163.28 1570.94 1159.44 1557.93 1159.44C1544.91 1159.44 1534.46 1163.28 1526.57 1170.96C1518.67 1178.64 1514.73 1188.77 1514.73 1201.36V1282.96C1514.73 1295.33 1518.67 1305.36 1526.57 1313.04C1534.46 1320.72 1544.91 1324.56 1557.93 1324.56C1570.94 1324.56 1581.29 1320.83 1588.97 1313.36C1596.86 1305.68 1600.81 1295.55 1600.81 1282.96C1600.81 1280.61 1602.09 1279.44 1604.65 1279.44L1634.09 1280.72C1635.15 1280.72 1636.01 1281.04 1636.65 1281.68C1637.5 1282.32 1637.93 1283.07 1637.93 1283.92C1637.93 1298.43 1634.62 1311.23 1628.01 1322.32C1621.39 1333.2 1612.01 1341.63 1599.85 1347.6C1587.69 1353.57 1573.71 1356.56 1557.93 1356.56ZM1811.82 1253.84C1812.68 1259.17 1813.1 1265.15 1813.1 1271.76L1812.78 1281.68C1812.78 1284.24 1811.5 1285.52 1808.94 1285.52H1708.78C1707.72 1285.52 1707.18 1286.05 1707.18 1287.12C1707.82 1294.16 1708.78 1298.96 1710.06 1301.52C1715.18 1316.88 1727.66 1324.67 1747.5 1324.88C1762.01 1324.88 1773.53 1318.91 1782.06 1306.96C1782.92 1305.68 1783.98 1305.04 1785.26 1305.04C1786.12 1305.04 1786.86 1305.36 1787.5 1306L1807.34 1322.32C1809.26 1323.81 1809.58 1325.52 1808.3 1327.44C1801.69 1336.83 1792.84 1344.08 1781.74 1349.2C1770.86 1354.32 1758.7 1356.88 1745.26 1356.88C1728.62 1356.88 1714.44 1353.15 1702.7 1345.68C1691.18 1338.21 1682.76 1327.76 1677.42 1314.32C1672.52 1302.8 1670.06 1286.8 1670.06 1266.32C1670.06 1253.95 1671.34 1243.92 1673.9 1236.24C1678.17 1221.31 1686.17 1209.57 1697.9 1201.04C1709.85 1192.29 1724.14 1187.92 1740.78 1187.92C1782.81 1187.92 1806.49 1209.89 1811.82 1253.84ZM1740.78 1219.92C1732.89 1219.92 1726.28 1221.95 1720.94 1226C1715.82 1229.84 1712.2 1235.28 1710.06 1242.32C1708.78 1245.95 1707.93 1250.64 1707.5 1256.4C1707.08 1257.47 1707.5 1258 1708.78 1258H1773.74C1774.81 1258 1775.34 1257.47 1775.34 1256.4C1774.92 1251.07 1774.28 1247.01 1773.42 1244.24C1771.5 1236.56 1767.66 1230.59 1761.9 1226.32C1756.36 1222.05 1749.32 1219.92 1740.78 1219.92ZM1925.43 1187.92C1942.71 1187.92 1956.47 1193.04 1966.71 1203.28C1977.16 1213.52 1982.39 1227.49 1982.39 1245.2V1350.16C1982.39 1351.23 1981.96 1352.19 1981.11 1353.04C1980.47 1353.68 1979.61 1354 1978.55 1354H1949.11C1948.04 1354 1947.08 1353.68 1946.23 1353.04C1945.59 1352.19 1945.27 1351.23 1945.27 1350.16V1252.88C1945.27 1243.07 1942.49 1235.17 1936.95 1229.2C1931.4 1223.01 1924.04 1219.92 1914.87 1219.92C1905.69 1219.92 1898.23 1222.91 1892.47 1228.88C1886.92 1234.85 1884.15 1242.75 1884.15 1252.56V1350.16C1884.15 1351.23 1883.72 1352.19 1882.87 1353.04C1882.23 1353.68 1881.37 1354 1880.31 1354H1850.87C1849.8 1354 1848.84 1353.68 1847.99 1353.04C1847.35 1352.19 1847.03 1351.23 1847.03 1350.16V1194.32C1847.03 1193.25 1847.35 1192.4 1847.99 1191.76C1848.84 1190.91 1849.8 1190.48 1850.87 1190.48H1880.31C1881.37 1190.48 1882.23 1190.91 1882.87 1191.76C1883.72 1192.4 1884.15 1193.25 1884.15 1194.32V1204.56C1884.15 1205.2 1884.36 1205.63 1884.79 1205.84C1885.21 1206.05 1885.53 1205.84 1885.75 1205.2C1894.49 1193.68 1907.72 1187.92 1925.43 1187.92ZM2107.81 1216.72C2107.81 1217.79 2107.38 1218.75 2106.53 1219.6C2105.89 1220.24 2105.04 1220.56 2103.97 1220.56H2071.33C2070.26 1220.56 2069.73 1221.09 2069.73 1222.16V1299.28C2069.73 1307.39 2071.44 1313.25 2074.85 1316.88C2078.48 1320.51 2084.13 1322.32 2091.81 1322.32H2101.41C2102.48 1322.32 2103.33 1322.75 2103.97 1323.6C2104.82 1324.24 2105.25 1325.09 2105.25 1326.16V1350.16C2105.25 1352.51 2103.97 1353.89 2101.41 1354.32L2084.77 1354.64C2067.92 1354.64 2055.33 1351.76 2047.01 1346C2038.69 1340.24 2034.42 1329.36 2034.21 1313.36V1222.16C2034.21 1221.09 2033.68 1220.56 2032.61 1220.56H2014.37C2013.3 1220.56 2012.34 1220.24 2011.49 1219.6C2010.85 1218.75 2010.53 1217.79 2010.53 1216.72V1194.32C2010.53 1193.25 2010.85 1192.4 2011.49 1191.76C2012.34 1190.91 2013.3 1190.48 2014.37 1190.48H2032.61C2033.68 1190.48 2034.21 1189.95 2034.21 1188.88V1151.44C2034.21 1150.37 2034.53 1149.52 2035.17 1148.88C2036.02 1148.03 2036.98 1147.6 2038.05 1147.6H2065.89C2066.96 1147.6 2067.81 1148.03 2068.45 1148.88C2069.3 1149.52 2069.73 1150.37 2069.73 1151.44V1188.88C2069.73 1189.95 2070.26 1190.48 2071.33 1190.48H2103.97C2105.04 1190.48 2105.89 1190.91 2106.53 1191.76C2107.38 1192.4 2107.81 1193.25 2107.81 1194.32V1216.72ZM2275.57 1253.84C2276.43 1259.17 2276.85 1265.15 2276.85 1271.76L2276.53 1281.68C2276.53 1284.24 2275.25 1285.52 2272.69 1285.52H2172.53C2171.47 1285.52 2170.93 1286.05 2170.93 1287.12C2171.57 1294.16 2172.53 1298.96 2173.81 1301.52C2178.93 1316.88 2191.41 1324.67 2211.25 1324.88C2225.76 1324.88 2237.28 1318.91 2245.81 1306.96C2246.67 1305.68 2247.73 1305.04 2249.01 1305.04C2249.87 1305.04 2250.61 1305.36 2251.25 1306L2271.09 1322.32C2273.01 1323.81 2273.33 1325.52 2272.05 1327.44C2265.44 1336.83 2256.59 1344.08 2245.49 1349.2C2234.61 1354.32 2222.45 1356.88 2209.01 1356.88C2192.37 1356.88 2178.19 1353.15 2166.45 1345.68C2154.93 1338.21 2146.51 1327.76 2141.17 1314.32C2136.27 1302.8 2133.81 1286.8 2133.81 1266.32C2133.81 1253.95 2135.09 1243.92 2137.65 1236.24C2141.92 1221.31 2149.92 1209.57 2161.65 1201.04C2173.6 1192.29 2187.89 1187.92 2204.53 1187.92C2246.56 1187.92 2270.24 1209.89 2275.57 1253.84ZM2204.53 1219.92C2196.64 1219.92 2190.03 1221.95 2184.69 1226C2179.57 1229.84 2175.95 1235.28 2173.81 1242.32C2172.53 1245.95 2171.68 1250.64 2171.25 1256.4C2170.83 1257.47 2171.25 1258 2172.53 1258H2237.49C2238.56 1258 2239.09 1257.47 2239.09 1256.4C2238.67 1251.07 2238.03 1247.01 2237.17 1244.24C2235.25 1236.56 2231.41 1230.59 2225.65 1226.32C2220.11 1222.05 2213.07 1219.92 2204.53 1219.92ZM2386.94 1188.56C2393.76 1188.56 2399.74 1189.95 2404.86 1192.72C2406.56 1193.57 2407.2 1195.17 2406.78 1197.52L2401.34 1226.32C2401.12 1228.88 2399.63 1229.63 2396.86 1228.56C2393.66 1227.49 2389.92 1226.96 2385.66 1226.96C2382.88 1226.96 2380.75 1227.07 2379.26 1227.28C2370.3 1227.71 2362.83 1230.91 2356.86 1236.88C2350.88 1242.64 2347.9 1250.21 2347.9 1259.6V1350.16C2347.9 1351.23 2347.47 1352.19 2346.62 1353.04C2345.98 1353.68 2345.12 1354 2344.06 1354H2314.62C2313.55 1354 2312.59 1353.68 2311.74 1353.04C2311.1 1352.19 2310.78 1351.23 2310.78 1350.16V1194.32C2310.78 1193.25 2311.1 1192.4 2311.74 1191.76C2312.59 1190.91 2313.55 1190.48 2314.62 1190.48H2344.06C2345.12 1190.48 2345.98 1190.91 2346.62 1191.76C2347.47 1192.4 2347.9 1193.25 2347.9 1194.32V1208.72C2347.9 1209.57 2348 1210.11 2348.22 1210.32C2348.64 1210.32 2349.07 1210 2349.5 1209.36C2358.46 1195.49 2370.94 1188.56 2386.94 1188.56Z" fill="white"/>
</svg>
