<svg width="3000" height="2000" viewBox="0 0 3000 2000" fill="none" xmlns="http://www.w3.org/2000/svg">
<rect opacity="0.7" width="3000" height="2000" fill="#0C4072"/>
<path d="M467.669 903C466.602 903 465.642 902.68 464.789 902.04C464.149 901.187 463.829 900.227 463.829 899.16V682.84C463.829 681.773 464.149 680.92 464.789 680.28C465.642 679.427 466.602 679 467.669 679H497.109C498.175 679 499.029 679.427 499.669 680.28C500.522 680.92 500.949 681.773 500.949 682.84V899.16C500.949 900.227 500.522 901.187 499.669 902.04C499.029 902.68 498.175 903 497.109 903H467.669ZM645.499 682.84C645.499 681.773 645.819 680.92 646.459 680.28C647.312 679.427 648.272 679 649.339 679H678.779C679.845 679 680.699 679.427 681.339 680.28C682.192 680.92 682.619 681.773 682.619 682.84V899.16C682.619 900.227 682.192 901.187 681.339 902.04C680.699 902.68 679.845 903 678.779 903H649.339C648.272 903 647.312 902.68 646.459 902.04C645.819 901.187 645.499 900.227 645.499 899.16V889.56C645.499 888.92 645.285 888.493 644.859 888.28C644.432 888.067 644.005 888.28 643.579 888.92C634.192 900.013 621.925 905.56 606.779 905.56C591.632 905.56 578.832 901.613 568.379 893.72C557.925 885.827 550.352 874.84 545.659 860.76C541.819 848.813 539.899 835.48 539.899 820.76C539.899 805.613 541.712 792.6 545.339 781.72C550.032 767.64 557.605 756.653 568.059 748.76C578.512 740.867 591.632 736.92 607.419 736.92C622.139 736.92 634.192 742.253 643.579 752.92C644.005 753.347 644.432 753.56 644.859 753.56C645.285 753.347 645.499 752.92 645.499 752.28V682.84ZM637.819 858.2C642.725 849.453 645.179 837.08 645.179 821.08C645.179 804.44 642.512 791.747 637.179 783C631.419 773.613 623.312 768.92 612.859 768.92C601.979 768.92 593.445 773.4 587.259 782.36C580.859 791.747 577.659 804.76 577.659 821.4C577.659 836.333 580.219 848.6 585.339 858.2C591.312 868.44 600.379 873.56 612.539 873.56C623.419 873.56 631.845 868.44 637.819 858.2ZM860.729 802.84C861.582 808.173 862.009 814.147 862.009 820.76L861.689 830.68C861.689 833.24 860.409 834.52 857.849 834.52H757.689C756.622 834.52 756.089 835.053 756.089 836.12C756.729 843.16 757.689 847.96 758.969 850.52C764.089 865.88 776.569 873.667 796.409 873.88C810.915 873.88 822.435 867.907 830.969 855.96C831.822 854.68 832.889 854.04 834.169 854.04C835.022 854.04 835.769 854.36 836.409 855L856.249 871.32C858.169 872.813 858.489 874.52 857.209 876.44C850.595 885.827 841.742 893.08 830.649 898.2C819.769 903.32 807.609 905.88 794.169 905.88C777.529 905.88 763.342 902.147 751.609 894.68C740.089 887.213 731.662 876.76 726.329 863.32C721.422 851.8 718.969 835.8 718.969 815.32C718.969 802.947 720.249 792.92 722.809 785.24C727.075 770.307 735.075 758.573 746.809 750.04C758.755 741.293 773.049 736.92 789.689 736.92C831.715 736.92 855.395 758.893 860.729 802.84ZM789.689 768.92C781.795 768.92 775.182 770.947 769.849 775C764.729 778.84 761.102 784.28 758.969 791.32C757.689 794.947 756.835 799.64 756.409 805.4C755.982 806.467 756.409 807 757.689 807H822.649C823.715 807 824.249 806.467 824.249 805.4C823.822 800.067 823.182 796.013 822.329 793.24C820.409 785.56 816.569 779.587 810.809 775.32C805.262 771.053 798.222 768.92 789.689 768.92ZM956.771 736.92C970.211 736.92 982.051 739.267 992.291 743.96C1002.53 748.653 1010.42 755.16 1015.97 763.48C1021.52 771.587 1024.29 780.867 1024.29 791.32V899.16C1024.29 900.227 1023.86 901.187 1023.01 902.04C1022.37 902.68 1021.52 903 1020.45 903H991.011C989.945 903 988.985 902.68 988.131 902.04C987.491 901.187 987.171 900.227 987.171 899.16V888.92C987.171 888.28 986.958 887.96 986.531 887.96C986.105 887.747 985.678 887.853 985.251 888.28C974.798 899.8 959.651 905.56 939.811 905.56C923.811 905.56 910.585 901.507 900.131 893.4C889.891 885.293 884.771 873.24 884.771 857.24C884.771 840.6 890.531 827.693 902.051 818.52C913.785 809.133 930.211 804.44 951.331 804.44H985.571C986.638 804.44 987.171 803.907 987.171 802.84V795.16C987.171 786.84 984.718 780.44 979.811 775.96C974.905 771.267 967.545 768.92 957.731 768.92C949.625 768.92 943.011 770.413 937.891 773.4C932.985 776.173 929.891 780.12 928.611 785.24C927.971 787.8 926.478 788.867 924.131 788.44L893.091 784.6C892.025 784.387 891.065 784.067 890.211 783.64C889.571 783 889.358 782.253 889.571 781.4C891.278 768.387 898.211 757.72 910.371 749.4C922.745 741.08 938.211 736.92 956.771 736.92ZM949.091 876.12C959.545 876.12 968.505 873.347 975.971 867.8C983.438 862.253 987.171 855.213 987.171 846.68V831.64C987.171 830.573 986.638 830.04 985.571 830.04H958.691C947.385 830.04 938.425 832.173 931.811 836.44C925.411 840.707 922.211 846.787 922.211 854.68C922.211 861.507 924.665 866.84 929.571 870.68C934.691 874.307 941.198 876.12 949.091 876.12ZM1065.4 903C1064.33 903 1063.37 902.68 1062.52 902.04C1061.88 901.187 1061.56 900.227 1061.56 899.16V682.84C1061.56 681.773 1061.88 680.92 1062.52 680.28C1063.37 679.427 1064.33 679 1065.4 679H1094.84C1095.91 679 1096.76 679.427 1097.4 680.28C1098.25 680.92 1098.68 681.773 1098.68 682.84V899.16C1098.68 900.227 1098.25 901.187 1097.4 902.04C1096.76 902.68 1095.91 903 1094.84 903H1065.4ZM1280.58 905.56C1264.58 905.56 1250.5 902.467 1238.34 896.28C1226.18 889.88 1216.8 881.027 1210.18 869.72C1203.57 858.413 1200.26 845.293 1200.26 830.36V751.32C1200.26 736.387 1203.57 723.267 1210.18 711.96C1216.8 700.653 1226.18 691.907 1238.34 685.72C1250.5 679.533 1264.58 676.44 1280.58 676.44C1296.37 676.44 1310.34 679.427 1322.5 685.4C1334.66 691.373 1344.05 699.8 1350.66 710.68C1357.28 721.56 1360.58 734.147 1360.58 748.44C1360.58 749.507 1360.16 750.467 1359.3 751.32C1358.66 751.96 1357.81 752.28 1356.74 752.28L1327.3 753.88C1324.74 753.88 1323.46 752.707 1323.46 750.36C1323.46 737.773 1319.52 727.64 1311.62 719.96C1303.94 712.28 1293.6 708.44 1280.58 708.44C1267.57 708.44 1257.12 712.28 1249.22 719.96C1241.33 727.64 1237.38 737.773 1237.38 750.36V831.96C1237.38 844.333 1241.33 854.36 1249.22 862.04C1257.12 869.72 1267.57 873.56 1280.58 873.56C1293.6 873.56 1303.94 869.827 1311.62 862.36C1319.52 854.68 1323.46 844.547 1323.46 831.96C1323.46 829.613 1324.74 828.44 1327.3 828.44L1356.74 829.72C1357.81 829.72 1358.66 830.04 1359.3 830.68C1360.16 831.32 1360.58 832.067 1360.58 832.92C1360.58 847.427 1357.28 860.227 1350.66 871.32C1344.05 882.2 1334.66 890.627 1322.5 896.6C1310.34 902.573 1296.37 905.56 1280.58 905.56ZM1493.51 743.32C1493.51 742.253 1493.83 741.4 1494.47 740.76C1495.32 739.907 1496.28 739.48 1497.35 739.48H1526.47C1527.54 739.48 1528.39 739.907 1529.03 740.76C1529.88 741.4 1530.31 742.253 1530.31 743.32V899.16C1530.31 900.227 1529.88 901.187 1529.03 902.04C1528.39 902.68 1527.54 903 1526.47 903H1497.35C1496.28 903 1495.32 902.68 1494.47 902.04C1493.83 901.187 1493.51 900.227 1493.51 899.16V888.92C1493.51 888.28 1493.3 887.853 1492.87 887.64C1492.44 887.427 1492.02 887.64 1491.59 888.28C1482.84 899.587 1469.72 905.24 1452.23 905.24C1436.02 905.24 1422.36 900.547 1411.27 891.16C1400.39 881.773 1394.95 868.44 1394.95 851.16V743.32C1394.95 742.253 1395.27 741.4 1395.91 740.76C1396.76 739.907 1397.72 739.48 1398.79 739.48H1428.23C1429.3 739.48 1430.15 739.907 1430.79 740.76C1431.64 741.4 1432.07 742.253 1432.07 743.32V840.6C1432.07 850.627 1434.63 858.627 1439.75 864.6C1445.08 870.573 1452.44 873.56 1461.83 873.56C1471.43 873.56 1479.11 870.573 1484.87 864.6C1490.63 858.627 1493.51 850.627 1493.51 840.6V743.32ZM1630.8 904.92C1617.36 904.92 1605.52 903 1595.28 899.16C1585.25 895.107 1577.46 889.667 1571.92 882.84C1566.37 875.8 1563.6 868.013 1563.6 859.48V856.6C1563.6 855.533 1563.92 854.68 1564.56 854.04C1565.41 853.187 1566.37 852.76 1567.44 852.76H1595.6C1596.66 852.76 1597.52 853.187 1598.16 854.04C1599.01 854.68 1599.44 855.533 1599.44 856.6V857.24C1599.44 862.573 1602.32 867.267 1608.08 871.32C1614.05 875.16 1621.52 877.08 1630.48 877.08C1639.01 877.08 1645.94 875.373 1651.28 871.96C1656.61 868.333 1659.28 863.853 1659.28 858.52C1659.28 853.613 1657.04 849.987 1652.56 847.64C1648.29 845.08 1641.25 842.413 1631.44 839.64L1619.28 835.8C1608.4 832.6 1599.22 829.187 1591.76 825.56C1584.29 821.933 1578 817.027 1572.88 810.84C1567.76 804.44 1565.2 796.333 1565.2 786.52C1565.2 771.587 1571.06 759.747 1582.8 751C1594.53 742.04 1610 737.56 1629.2 737.56C1642.21 737.56 1653.62 739.693 1663.44 743.96C1673.25 748.013 1680.82 753.773 1686.16 761.24C1691.49 768.493 1694.16 776.813 1694.16 786.2C1694.16 787.267 1693.73 788.227 1692.88 789.08C1692.24 789.72 1691.38 790.04 1690.32 790.04H1663.12C1662.05 790.04 1661.09 789.72 1660.24 789.08C1659.6 788.227 1659.28 787.267 1659.28 786.2C1659.28 780.653 1656.5 776.067 1650.96 772.44C1645.62 768.6 1638.26 766.68 1628.88 766.68C1620.56 766.68 1613.73 768.28 1608.4 771.48C1603.28 774.467 1600.72 778.733 1600.72 784.28C1600.72 789.4 1603.17 793.347 1608.08 796.12C1613.2 798.68 1621.62 801.56 1633.36 804.76L1640.4 806.68C1651.7 810.093 1661.2 813.613 1668.88 817.24C1676.56 820.653 1683.06 825.56 1688.4 831.96C1693.73 838.147 1696.4 846.253 1696.4 856.28C1696.4 871.427 1690.42 883.373 1678.48 892.12C1666.53 900.653 1650.64 904.92 1630.8 904.92ZM1814.22 765.72C1814.22 766.787 1813.79 767.747 1812.94 768.6C1812.3 769.24 1811.44 769.56 1810.38 769.56H1777.74C1776.67 769.56 1776.14 770.093 1776.14 771.16V848.28C1776.14 856.387 1777.84 862.253 1781.26 865.88C1784.88 869.507 1790.54 871.32 1798.22 871.32H1807.82C1808.88 871.32 1809.74 871.747 1810.38 872.6C1811.23 873.24 1811.66 874.093 1811.66 875.16V899.16C1811.66 901.507 1810.38 902.893 1807.82 903.32L1791.18 903.64C1774.32 903.64 1761.74 900.76 1753.42 895C1745.1 889.24 1740.83 878.36 1740.62 862.36V771.16C1740.62 770.093 1740.08 769.56 1739.02 769.56H1720.78C1719.71 769.56 1718.75 769.24 1717.9 768.6C1717.26 767.747 1716.94 766.787 1716.94 765.72V743.32C1716.94 742.253 1717.26 741.4 1717.9 740.76C1718.75 739.907 1719.71 739.48 1720.78 739.48H1739.02C1740.08 739.48 1740.62 738.947 1740.62 737.88V700.44C1740.62 699.373 1740.94 698.52 1741.58 697.88C1742.43 697.027 1743.39 696.6 1744.46 696.6H1772.3C1773.36 696.6 1774.22 697.027 1774.86 697.88C1775.71 698.52 1776.14 699.373 1776.14 700.44V737.88C1776.14 738.947 1776.67 739.48 1777.74 739.48H1810.38C1811.44 739.48 1812.3 739.907 1812.94 740.76C1813.79 741.4 1814.22 742.253 1814.22 743.32V765.72ZM1913.5 905.56C1896.65 905.56 1882.14 901.293 1869.98 892.76C1858.03 884.227 1849.61 872.387 1844.7 857.24C1841.07 845.72 1839.26 833.56 1839.26 820.76C1839.26 807.107 1840.97 794.947 1844.38 784.28C1849.29 769.347 1857.82 757.72 1869.98 749.4C1882.14 741.08 1896.75 736.92 1913.82 736.92C1930.03 736.92 1944.01 741.08 1955.74 749.4C1967.69 757.72 1976.11 769.24 1981.02 783.96C1984.86 794.2 1986.78 806.36 1986.78 820.44C1986.78 833.88 1984.97 846.04 1981.34 856.92C1976.43 872.067 1968.01 884.013 1956.06 892.76C1944.11 901.293 1929.93 905.56 1913.5 905.56ZM1913.5 873.56C1921.39 873.56 1928.11 871.32 1933.66 866.84C1939.42 862.36 1943.58 856.067 1946.14 847.96C1948.27 840.92 1949.34 831.96 1949.34 821.08C1949.34 809.56 1948.27 800.6 1946.14 794.2C1943.79 786.093 1939.74 779.907 1933.98 775.64C1928.22 771.16 1921.18 768.92 1912.86 768.92C1904.97 768.92 1898.14 771.16 1892.38 775.64C1886.62 779.907 1882.46 786.093 1879.9 794.2C1877.77 801.667 1876.7 810.627 1876.7 821.08C1876.7 831.533 1877.77 840.493 1879.9 847.96C1882.25 856.067 1886.3 862.36 1892.06 866.84C1898.03 871.32 1905.18 873.56 1913.5 873.56ZM2196.91 736.92C2213.34 736.92 2226.14 741.933 2235.31 751.96C2244.7 761.773 2249.39 775.533 2249.39 793.24V899.16C2249.39 900.227 2248.96 901.187 2248.11 902.04C2247.47 902.68 2246.62 903 2245.55 903H2216.43C2215.36 903 2214.4 902.68 2213.55 902.04C2212.91 901.187 2212.59 900.227 2212.59 899.16V800.92C2212.59 791.107 2209.92 783.32 2204.59 777.56C2199.47 771.8 2192.54 768.92 2183.79 768.92C2175.04 768.92 2167.9 771.8 2162.35 777.56C2156.8 783.32 2154.03 791 2154.03 800.6V899.16C2154.03 900.227 2153.6 901.187 2152.75 902.04C2152.11 902.68 2151.26 903 2150.19 903H2121.07C2120 903 2119.04 902.68 2118.19 902.04C2117.55 901.187 2117.23 900.227 2117.23 899.16V800.92C2117.23 791.107 2114.56 783.32 2109.23 777.56C2103.9 771.8 2096.86 768.92 2088.11 768.92C2080 768.92 2073.28 771.267 2067.95 775.96C2062.83 780.653 2059.84 787.053 2058.99 795.16V899.16C2058.99 900.227 2058.56 901.187 2057.71 902.04C2057.07 902.68 2056.22 903 2055.15 903H2025.71C2024.64 903 2023.68 902.68 2022.83 902.04C2022.19 901.187 2021.87 900.227 2021.87 899.16V743.32C2021.87 742.253 2022.19 741.4 2022.83 740.76C2023.68 739.907 2024.64 739.48 2025.71 739.48H2055.15C2056.22 739.48 2057.07 739.907 2057.71 740.76C2058.56 741.4 2058.99 742.253 2058.99 743.32V753.88C2058.99 754.52 2059.2 754.947 2059.63 755.16C2060.06 755.373 2060.48 755.16 2060.91 754.52C2065.6 748.547 2071.36 744.173 2078.19 741.4C2085.23 738.413 2093.02 736.92 2101.55 736.92C2112 736.92 2121.18 739.053 2129.07 743.32C2136.96 747.587 2143.04 753.773 2147.31 761.88C2147.95 762.733 2148.7 762.733 2149.55 761.88C2154.24 753.347 2160.75 747.053 2169.07 743C2177.39 738.947 2186.67 736.92 2196.91 736.92ZM2423.85 802.84C2424.71 808.173 2425.13 814.147 2425.13 820.76L2424.81 830.68C2424.81 833.24 2423.53 834.52 2420.97 834.52H2320.81C2319.75 834.52 2319.21 835.053 2319.21 836.12C2319.85 843.16 2320.81 847.96 2322.09 850.52C2327.21 865.88 2339.69 873.667 2359.53 873.88C2374.04 873.88 2385.56 867.907 2394.09 855.96C2394.95 854.68 2396.01 854.04 2397.29 854.04C2398.15 854.04 2398.89 854.36 2399.53 855L2419.37 871.32C2421.29 872.813 2421.61 874.52 2420.33 876.44C2413.72 885.827 2404.87 893.08 2393.77 898.2C2382.89 903.32 2370.73 905.88 2357.29 905.88C2340.65 905.88 2326.47 902.147 2314.73 894.68C2303.21 887.213 2294.79 876.76 2289.45 863.32C2284.55 851.8 2282.09 835.8 2282.09 815.32C2282.09 802.947 2283.37 792.92 2285.93 785.24C2290.2 770.307 2298.2 758.573 2309.93 750.04C2321.88 741.293 2336.17 736.92 2352.81 736.92C2394.84 736.92 2418.52 758.893 2423.85 802.84ZM2352.81 768.92C2344.92 768.92 2338.31 770.947 2332.97 775C2327.85 778.84 2324.23 784.28 2322.09 791.32C2320.81 794.947 2319.96 799.64 2319.53 805.4C2319.11 806.467 2319.53 807 2320.81 807H2385.77C2386.84 807 2387.37 806.467 2387.37 805.4C2386.95 800.067 2386.31 796.013 2385.45 793.24C2383.53 785.56 2379.69 779.587 2373.93 775.32C2368.39 771.053 2361.35 768.92 2352.81 768.92ZM2535.22 737.56C2542.05 737.56 2548.02 738.947 2553.14 741.72C2554.85 742.573 2555.49 744.173 2555.06 746.52L2549.62 775.32C2549.41 777.88 2547.91 778.627 2545.14 777.56C2541.94 776.493 2538.21 775.96 2533.94 775.96C2531.17 775.96 2529.03 776.067 2527.54 776.28C2518.58 776.707 2511.11 779.907 2505.14 785.88C2499.17 791.64 2496.18 799.213 2496.18 808.6V899.16C2496.18 900.227 2495.75 901.187 2494.9 902.04C2494.26 902.68 2493.41 903 2492.34 903H2462.9C2461.83 903 2460.87 902.68 2460.02 902.04C2459.38 901.187 2459.06 900.227 2459.06 899.16V743.32C2459.06 742.253 2459.38 741.4 2460.02 740.76C2460.87 739.907 2461.83 739.48 2462.9 739.48H2492.34C2493.41 739.48 2494.26 739.907 2494.9 740.76C2495.75 741.4 2496.18 742.253 2496.18 743.32V757.72C2496.18 758.573 2496.29 759.107 2496.5 759.32C2496.93 759.32 2497.35 759 2497.78 758.36C2506.74 744.493 2519.22 737.56 2535.22 737.56ZM1144.84 1129.68C1158.28 1129.68 1170.12 1132.45 1180.36 1138C1190.6 1143.55 1198.5 1151.44 1204.04 1161.68C1209.8 1171.71 1212.68 1183.33 1212.68 1196.56C1212.68 1209.57 1209.8 1221.09 1204.04 1231.12C1198.28 1241.15 1190.07 1248.93 1179.4 1254.48C1168.95 1259.81 1156.79 1262.48 1142.92 1262.48H1091.72C1090.66 1262.48 1090.12 1263.01 1090.12 1264.08V1350.16C1090.12 1351.23 1089.7 1352.19 1088.84 1353.04C1088.2 1353.68 1087.35 1354 1086.28 1354H1056.84C1055.78 1354 1054.82 1353.68 1053.96 1353.04C1053.32 1352.19 1053 1351.23 1053 1350.16V1133.52C1053 1132.45 1053.32 1131.6 1053.96 1130.96C1054.82 1130.11 1055.78 1129.68 1056.84 1129.68H1144.84ZM1139.4 1232.4C1150.28 1232.4 1159.03 1229.2 1165.64 1222.8C1172.26 1216.4 1175.56 1207.97 1175.56 1197.52C1175.56 1186.85 1172.26 1178.21 1165.64 1171.6C1159.03 1164.99 1150.28 1161.68 1139.4 1161.68H1091.72C1090.66 1161.68 1090.12 1162.21 1090.12 1163.28V1230.8C1090.12 1231.87 1090.66 1232.4 1091.72 1232.4H1139.4ZM1317.88 1188.56C1324.7 1188.56 1330.68 1189.95 1335.8 1192.72C1337.5 1193.57 1338.14 1195.17 1337.72 1197.52L1332.28 1226.32C1332.06 1228.88 1330.57 1229.63 1327.8 1228.56C1324.6 1227.49 1320.86 1226.96 1316.6 1226.96C1313.82 1226.96 1311.69 1227.07 1310.2 1227.28C1301.24 1227.71 1293.77 1230.91 1287.8 1236.88C1281.82 1242.64 1278.84 1250.21 1278.84 1259.6V1350.16C1278.84 1351.23 1278.41 1352.19 1277.56 1353.04C1276.92 1353.68 1276.06 1354 1275 1354H1245.56C1244.49 1354 1243.53 1353.68 1242.68 1353.04C1242.04 1352.19 1241.72 1351.23 1241.72 1350.16V1194.32C1241.72 1193.25 1242.04 1192.4 1242.68 1191.76C1243.53 1190.91 1244.49 1190.48 1245.56 1190.48H1275C1276.06 1190.48 1276.92 1190.91 1277.56 1191.76C1278.41 1192.4 1278.84 1193.25 1278.84 1194.32V1208.72C1278.84 1209.57 1278.94 1210.11 1279.16 1210.32C1279.58 1210.32 1280.01 1210 1280.44 1209.36C1289.4 1195.49 1301.88 1188.56 1317.88 1188.56ZM1428.34 1356.56C1411.49 1356.56 1396.98 1352.29 1384.82 1343.76C1372.88 1335.23 1364.45 1323.39 1359.54 1308.24C1355.92 1296.72 1354.1 1284.56 1354.1 1271.76C1354.1 1258.11 1355.81 1245.95 1359.22 1235.28C1364.13 1220.35 1372.66 1208.72 1384.82 1200.4C1396.98 1192.08 1411.6 1187.92 1428.66 1187.92C1444.88 1187.92 1458.85 1192.08 1470.58 1200.4C1482.53 1208.72 1490.96 1220.24 1495.86 1234.96C1499.7 1245.2 1501.62 1257.36 1501.62 1271.44C1501.62 1284.88 1499.81 1297.04 1496.18 1307.92C1491.28 1323.07 1482.85 1335.01 1470.9 1343.76C1458.96 1352.29 1444.77 1356.56 1428.34 1356.56ZM1428.34 1324.56C1436.24 1324.56 1442.96 1322.32 1448.5 1317.84C1454.26 1313.36 1458.42 1307.07 1460.98 1298.96C1463.12 1291.92 1464.18 1282.96 1464.18 1272.08C1464.18 1260.56 1463.12 1251.6 1460.98 1245.2C1458.64 1237.09 1454.58 1230.91 1448.82 1226.64C1443.06 1222.16 1436.02 1219.92 1427.7 1219.92C1419.81 1219.92 1412.98 1222.16 1407.22 1226.64C1401.46 1230.91 1397.3 1237.09 1394.74 1245.2C1392.61 1252.67 1391.54 1261.63 1391.54 1272.08C1391.54 1282.53 1392.61 1291.49 1394.74 1298.96C1397.09 1307.07 1401.14 1313.36 1406.9 1317.84C1412.88 1322.32 1420.02 1324.56 1428.34 1324.56ZM1621.84 1190.16C1622.9 1190.16 1623.76 1190.59 1624.4 1191.44C1625.25 1192.08 1625.68 1192.93 1625.68 1194V1219.28C1625.68 1220.35 1625.25 1221.31 1624.4 1222.16C1623.76 1222.8 1622.9 1223.12 1621.84 1223.12H1590.16C1589.09 1223.12 1588.56 1223.65 1588.56 1224.72V1350.16C1588.56 1351.23 1588.13 1352.19 1587.28 1353.04C1586.64 1353.68 1585.78 1354 1584.72 1354H1555.28C1554.21 1354 1553.25 1353.68 1552.4 1353.04C1551.76 1352.19 1551.44 1351.23 1551.44 1350.16V1224.72C1551.44 1223.65 1550.9 1223.12 1549.84 1223.12H1530C1528.93 1223.12 1527.97 1222.8 1527.12 1222.16C1526.48 1221.31 1526.16 1220.35 1526.16 1219.28V1194C1526.16 1192.93 1526.48 1192.08 1527.12 1191.44C1527.97 1190.59 1528.93 1190.16 1530 1190.16H1549.84C1550.9 1190.16 1551.44 1189.63 1551.44 1188.56V1182.8C1551.44 1168.93 1553.25 1158.27 1556.88 1150.8C1560.5 1143.12 1566.48 1137.68 1574.8 1134.48C1583.12 1131.28 1594.85 1129.79 1610 1130H1621.2C1622.26 1130 1623.12 1130.43 1623.76 1131.28C1624.61 1131.92 1625.04 1132.77 1625.04 1133.84V1156.24C1625.04 1157.31 1624.61 1158.27 1623.76 1159.12C1623.12 1159.76 1622.26 1160.08 1621.2 1160.08H1612.88C1603.7 1160.08 1597.3 1161.89 1593.68 1165.52C1590.26 1169.15 1588.56 1175.76 1588.56 1185.36V1188.56C1588.56 1189.63 1589.09 1190.16 1590.16 1190.16H1621.84ZM1678.16 1168.08C1671.54 1168.08 1666.1 1165.95 1661.84 1161.68C1657.57 1157.41 1655.44 1151.97 1655.44 1145.36C1655.44 1138.75 1657.57 1133.31 1661.84 1129.04C1666.1 1124.77 1671.54 1122.64 1678.16 1122.64C1684.77 1122.64 1690.21 1124.77 1694.48 1129.04C1698.74 1133.31 1700.88 1138.75 1700.88 1145.36C1700.88 1151.97 1698.74 1157.41 1694.48 1161.68C1690.21 1165.95 1684.77 1168.08 1678.16 1168.08ZM1662.8 1354C1661.73 1354 1660.77 1353.68 1659.92 1353.04C1659.28 1352.19 1658.96 1351.23 1658.96 1350.16V1194C1658.96 1192.93 1659.28 1192.08 1659.92 1191.44C1660.77 1190.59 1661.73 1190.16 1662.8 1190.16H1692.24C1693.3 1190.16 1694.16 1190.59 1694.8 1191.44C1695.65 1192.08 1696.08 1192.93 1696.08 1194V1350.16C1696.08 1351.23 1695.65 1352.19 1694.8 1353.04C1694.16 1353.68 1693.3 1354 1692.24 1354H1662.8ZM1742.43 1354C1741.36 1354 1740.4 1353.68 1739.55 1353.04C1738.91 1352.19 1738.59 1351.23 1738.59 1350.16V1133.84C1738.59 1132.77 1738.91 1131.92 1739.55 1131.28C1740.4 1130.43 1741.36 1130 1742.43 1130H1771.87C1772.94 1130 1773.79 1130.43 1774.43 1131.28C1775.28 1131.92 1775.71 1132.77 1775.71 1133.84V1350.16C1775.71 1351.23 1775.28 1352.19 1774.43 1353.04C1773.79 1353.68 1772.94 1354 1771.87 1354H1742.43ZM1953.07 1253.84C1953.93 1259.17 1954.35 1265.15 1954.35 1271.76L1954.03 1281.68C1954.03 1284.24 1952.75 1285.52 1950.19 1285.52H1850.03C1848.97 1285.52 1848.43 1286.05 1848.43 1287.12C1849.07 1294.16 1850.03 1298.96 1851.31 1301.52C1856.43 1316.88 1868.91 1324.67 1888.75 1324.88C1903.26 1324.88 1914.78 1318.91 1923.31 1306.96C1924.17 1305.68 1925.23 1305.04 1926.51 1305.04C1927.37 1305.04 1928.11 1305.36 1928.75 1306L1948.59 1322.32C1950.51 1323.81 1950.83 1325.52 1949.55 1327.44C1942.94 1336.83 1934.09 1344.08 1922.99 1349.2C1912.11 1354.32 1899.95 1356.88 1886.51 1356.88C1869.87 1356.88 1855.69 1353.15 1843.95 1345.68C1832.43 1338.21 1824.01 1327.76 1818.67 1314.32C1813.77 1302.8 1811.31 1286.8 1811.31 1266.32C1811.31 1253.95 1812.59 1243.92 1815.15 1236.24C1819.42 1221.31 1827.42 1209.57 1839.15 1201.04C1851.1 1192.29 1865.39 1187.92 1882.03 1187.92C1924.06 1187.92 1947.74 1209.89 1953.07 1253.84ZM1882.03 1219.92C1874.14 1219.92 1867.53 1221.95 1862.19 1226C1857.07 1229.84 1853.45 1235.28 1851.31 1242.32C1850.03 1245.95 1849.18 1250.64 1848.75 1256.4C1848.33 1257.47 1848.75 1258 1850.03 1258H1914.99C1916.06 1258 1916.59 1257.47 1916.59 1256.4C1916.17 1251.07 1915.53 1247.01 1914.67 1244.24C1912.75 1236.56 1908.91 1230.59 1903.15 1226.32C1897.61 1222.05 1890.57 1219.92 1882.03 1219.92Z" fill="white"/>
</svg>
