<svg width="429" height="225" viewBox="0 0 429 225" fill="none" xmlns="http://www.w3.org/2000/svg">
<path d="M88.0002 101.583C102.728 101.583 114.667 89.4581 114.667 74.5C114.667 59.5418 102.728 47.4166 88.0002 47.4166C73.2722 47.4166 61.3335 59.5418 61.3335 74.5C61.3335 89.4581 73.2722 101.583 88.0002 101.583Z" stroke="#1163B2" stroke-width="5.5"/>
<path d="M97.3334 66.375L97.7921 66.8408C101.347 70.451 103.125 72.2575 103.125 74.5C103.125 76.7425 101.347 78.5489 97.7921 82.1591L97.3334 82.625M91.4508 61.4187L88.0001 74.5L84.5494 87.5812M78.6668 66.375L78.2108 66.8408C74.6534 70.451 72.8774 72.2575 72.8774 74.5C72.8774 76.7425 74.6534 78.5489 78.2108 82.1591L78.6668 82.625" stroke="#1163B2" stroke-width="5.5" stroke-linecap="round"/>
<path d="M26.622 102.816C21.794 102.816 17.544 101.898 13.872 100.062C10.268 98.226 7.48 95.642 5.508 92.31C3.536 88.978 2.55 85.136 2.55 80.784V73.542C2.55 72.862 2.89 72.522 3.57 72.522H11.322C12.002 72.522 12.342 72.862 12.342 73.542V80.784C12.342 84.864 13.634 88.162 16.218 90.678C18.802 93.126 22.27 94.35 26.622 94.35C30.838 94.35 34.272 93.126 36.924 90.678C39.576 88.162 40.902 84.864 40.902 80.784V31.62C40.902 30.94 41.242 30.6 41.922 30.6H49.674C50.354 30.6 50.694 30.94 50.694 31.62V80.784C50.694 85.136 49.674 88.978 47.634 92.31C45.662 95.642 42.84 98.226 39.168 100.062C35.496 101.898 31.314 102.816 26.622 102.816Z" fill="#1163B2"/>
<path d="M150.294 49.368C155.87 49.368 160.29 51 163.554 54.264C166.818 57.46 168.45 61.812 168.45 67.32V100.98C168.45 101.66 168.11 102 167.43 102H159.678C158.998 102 158.658 101.66 158.658 100.98V69.258C158.658 65.858 157.672 63.104 155.7 60.996C153.728 58.888 151.11 57.834 147.846 57.834C144.65 57.834 142.032 58.888 139.992 60.996C137.952 63.104 136.932 65.824 136.932 69.156V100.98C136.932 101.66 136.592 102 135.912 102H128.16C127.48 102 127.14 101.66 127.14 100.98V51.102C127.14 50.422 127.48 50.082 128.16 50.082H135.912C136.592 50.082 136.932 50.422 136.932 51.102V54.774C136.932 54.91 136.966 55.012 137.034 55.08C137.17 55.148 137.272 55.114 137.34 54.978C140.264 51.238 144.582 49.368 150.294 49.368ZM201.395 49.266C205.543 49.266 209.147 50.014 212.207 51.51C215.335 52.938 217.715 54.978 219.347 57.63C221.047 60.214 221.897 63.172 221.897 66.504V100.98C221.897 101.66 221.557 102 220.877 102H213.125C212.445 102 212.105 101.66 212.105 100.98V97.308C212.105 96.968 211.935 96.9 211.595 97.104C209.827 98.94 207.651 100.368 205.067 101.388C202.551 102.34 199.729 102.816 196.601 102.816C191.569 102.816 187.387 101.558 184.055 99.042C180.791 96.458 179.159 92.582 179.159 87.414C179.159 82.11 180.995 77.962 184.667 74.97C188.407 71.91 193.609 70.38 200.273 70.38H211.697C211.969 70.38 212.105 70.244 212.105 69.972V67.218C212.105 64.226 211.221 61.914 209.453 60.282C207.753 58.582 205.135 57.732 201.599 57.732C198.743 57.732 196.397 58.31 194.561 59.466C192.793 60.554 191.705 62.05 191.297 63.954C191.093 64.634 190.685 64.94 190.073 64.872L181.811 63.75C181.131 63.614 180.825 63.342 180.893 62.934C181.437 58.922 183.579 55.658 187.319 53.142C191.059 50.558 195.751 49.266 201.395 49.266ZM198.743 94.554C202.347 94.554 205.475 93.602 208.127 91.698C210.779 89.794 212.105 87.38 212.105 84.456V78.438C212.105 78.166 211.969 78.03 211.697 78.03H202.109C198.097 78.03 194.901 78.812 192.521 80.376C190.141 81.94 188.951 84.116 188.951 86.904C188.951 89.42 189.835 91.324 191.603 92.616C193.439 93.908 195.819 94.554 198.743 94.554ZM260.021 57.12C260.021 57.8 259.681 58.14 259.001 58.14H247.985C247.713 58.14 247.577 58.276 247.577 58.548V85.578C247.577 88.434 248.223 90.508 249.515 91.8C250.807 93.024 252.813 93.636 255.533 93.636H258.491C259.171 93.636 259.511 93.976 259.511 94.656V100.98C259.511 101.66 259.171 102 258.491 102C256.315 102.136 254.751 102.204 253.799 102.204C248.631 102.204 244.721 101.286 242.069 99.45C239.485 97.546 238.193 94.078 238.193 89.046V58.548C238.193 58.276 238.057 58.14 237.785 58.14H231.563C230.883 58.14 230.543 57.8 230.543 57.12V51.102C230.543 50.422 230.883 50.082 231.563 50.082H237.785C238.057 50.082 238.193 49.946 238.193 49.674V37.638C238.193 36.958 238.533 36.618 239.213 36.618H246.557C247.237 36.618 247.577 36.958 247.577 37.638V49.674C247.577 49.946 247.713 50.082 247.985 50.082H259.001C259.681 50.082 260.021 50.422 260.021 51.102V57.12ZM295.226 49.368C300.802 49.368 305.222 51 308.486 54.264C311.75 57.46 313.382 61.812 313.382 67.32V100.98C313.382 101.66 313.042 102 312.362 102H304.61C303.93 102 303.59 101.66 303.59 100.98V69.258C303.59 65.858 302.604 63.104 300.632 60.996C298.66 58.888 296.042 57.834 292.778 57.834C289.582 57.834 286.964 58.888 284.924 60.996C282.884 63.104 281.864 65.824 281.864 69.156V100.98C281.864 101.66 281.524 102 280.844 102H273.092C272.412 102 272.072 101.66 272.072 100.98V31.62C272.072 30.94 272.412 30.6 273.092 30.6H280.844C281.524 30.6 281.864 30.94 281.864 31.62V54.774C281.864 54.91 281.898 55.012 281.966 55.08C282.102 55.148 282.204 55.114 282.272 54.978C285.196 51.238 289.514 49.368 295.226 49.368ZM346.327 49.266C350.475 49.266 354.079 50.014 357.139 51.51C360.267 52.938 362.647 54.978 364.279 57.63C365.979 60.214 366.829 63.172 366.829 66.504V100.98C366.829 101.66 366.489 102 365.809 102H358.057C357.377 102 357.037 101.66 357.037 100.98V97.308C357.037 96.968 356.867 96.9 356.527 97.104C354.759 98.94 352.583 100.368 349.999 101.388C347.483 102.34 344.661 102.816 341.533 102.816C336.501 102.816 332.319 101.558 328.987 99.042C325.723 96.458 324.091 92.582 324.091 87.414C324.091 82.11 325.927 77.962 329.599 74.97C333.339 71.91 338.541 70.38 345.205 70.38H356.629C356.901 70.38 357.037 70.244 357.037 69.972V67.218C357.037 64.226 356.153 61.914 354.385 60.282C352.685 58.582 350.067 57.732 346.531 57.732C343.675 57.732 341.329 58.31 339.493 59.466C337.725 60.554 336.637 62.05 336.229 63.954C336.025 64.634 335.617 64.94 335.005 64.872L326.743 63.75C326.063 63.614 325.757 63.342 325.825 62.934C326.369 58.922 328.511 55.658 332.251 53.142C335.991 50.558 340.683 49.266 346.327 49.266ZM343.675 94.554C347.279 94.554 350.407 93.602 353.059 91.698C355.711 89.794 357.037 87.38 357.037 84.456V78.438C357.037 78.166 356.901 78.03 356.629 78.03H347.041C343.029 78.03 339.833 78.812 337.453 80.376C335.073 81.94 333.883 84.116 333.883 86.904C333.883 89.42 334.767 91.324 336.535 92.616C338.371 93.908 340.751 94.554 343.675 94.554ZM403.202 49.368C408.778 49.368 413.198 51 416.462 54.264C419.726 57.46 421.358 61.812 421.358 67.32V100.98C421.358 101.66 421.018 102 420.338 102H412.586C411.906 102 411.566 101.66 411.566 100.98V69.258C411.566 65.858 410.58 63.104 408.608 60.996C406.636 58.888 404.018 57.834 400.754 57.834C397.558 57.834 394.94 58.888 392.9 60.996C390.86 63.104 389.84 65.824 389.84 69.156V100.98C389.84 101.66 389.5 102 388.82 102H381.068C380.388 102 380.048 101.66 380.048 100.98V51.102C380.048 50.422 380.388 50.082 381.068 50.082H388.82C389.5 50.082 389.84 50.422 389.84 51.102V54.774C389.84 54.91 389.874 55.012 389.942 55.08C390.078 55.148 390.18 55.114 390.248 54.978C393.172 51.238 397.49 49.368 403.202 49.368Z" fill="#1163B2"/>
<path d="M146.042 133.62C146.042 132.94 146.382 132.6 147.062 132.6H154.814C155.494 132.6 155.834 132.94 155.834 133.62V202.98C155.834 203.66 155.494 204 154.814 204H147.062C146.382 204 146.042 203.66 146.042 202.98V172.686C146.042 172.414 145.906 172.278 145.634 172.278H116.564C116.292 172.278 116.156 172.414 116.156 172.686V202.98C116.156 203.66 115.816 204 115.136 204H107.384C106.704 204 106.364 203.66 106.364 202.98V133.62C106.364 132.94 106.704 132.6 107.384 132.6H115.136C115.816 132.6 116.156 132.94 116.156 133.62V163.404C116.156 163.676 116.292 163.812 116.564 163.812H145.634C145.906 163.812 146.042 163.676 146.042 163.404V133.62ZM212.906 171.564C213.178 174.352 213.28 177.48 213.212 180.948C213.212 181.628 212.872 181.968 212.192 181.968H179.654C179.382 181.968 179.246 182.104 179.246 182.376C179.246 184.688 179.45 186.456 179.858 187.68C180.606 190.4 182.102 192.542 184.346 194.106C186.658 195.602 189.548 196.35 193.016 196.35C198.048 196.35 201.924 194.276 204.644 190.128C204.984 189.448 205.426 189.346 205.97 189.822L211.784 193.698C212.26 194.106 212.362 194.548 212.09 195.024C210.186 198.084 207.466 200.498 203.93 202.266C200.462 204.034 196.518 204.918 192.098 204.918C187.134 204.918 182.952 203.83 179.552 201.654C176.152 199.478 173.602 196.384 171.902 192.372C170.27 188.36 169.454 183.498 169.454 177.786C169.454 172.822 169.828 169.048 170.576 166.464C171.8 161.772 174.248 158.066 177.92 155.346C181.592 152.626 186.046 151.266 191.282 151.266C198.15 151.266 203.284 153 206.684 156.468C210.084 159.868 212.158 164.9 212.906 171.564ZM191.282 159.732C188.358 159.732 185.944 160.48 184.04 161.976C182.136 163.404 180.844 165.342 180.164 167.79C179.688 169.286 179.382 171.19 179.246 173.502C179.246 173.774 179.382 173.91 179.654 173.91H203.012C203.284 173.91 203.42 173.774 203.42 173.502C203.284 171.258 203.08 169.592 202.808 168.504C202.128 165.852 200.768 163.744 198.728 162.18C196.756 160.548 194.274 159.732 191.282 159.732ZM244.042 151.266C248.19 151.266 251.794 152.014 254.854 153.51C257.982 154.938 260.362 156.978 261.994 159.63C263.694 162.214 264.544 165.172 264.544 168.504V202.98C264.544 203.66 264.204 204 263.524 204H255.772C255.092 204 254.752 203.66 254.752 202.98V199.308C254.752 198.968 254.582 198.9 254.242 199.104C252.474 200.94 250.298 202.368 247.714 203.388C245.198 204.34 242.376 204.816 239.248 204.816C234.216 204.816 230.034 203.558 226.702 201.042C223.438 198.458 221.806 194.582 221.806 189.414C221.806 184.11 223.642 179.962 227.314 176.97C231.054 173.91 236.256 172.38 242.92 172.38H254.344C254.616 172.38 254.752 172.244 254.752 171.972V169.218C254.752 166.226 253.868 163.914 252.1 162.282C250.4 160.582 247.782 159.732 244.246 159.732C241.39 159.732 239.044 160.31 237.208 161.466C235.44 162.554 234.352 164.05 233.944 165.954C233.74 166.634 233.332 166.94 232.72 166.872L224.458 165.75C223.778 165.614 223.472 165.342 223.54 164.934C224.084 160.922 226.226 157.658 229.966 155.142C233.706 152.558 238.398 151.266 244.042 151.266ZM241.39 196.554C244.994 196.554 248.122 195.602 250.774 193.698C253.426 191.794 254.752 189.38 254.752 186.456V180.438C254.752 180.166 254.616 180.03 254.344 180.03H244.756C240.744 180.03 237.548 180.812 235.168 182.376C232.788 183.94 231.598 186.116 231.598 188.904C231.598 191.42 232.482 193.324 234.25 194.616C236.086 195.908 238.466 196.554 241.39 196.554ZM300.917 151.368C306.493 151.368 310.913 153 314.177 156.264C317.441 159.46 319.073 163.812 319.073 169.32V202.98C319.073 203.66 318.733 204 318.053 204H310.301C309.621 204 309.281 203.66 309.281 202.98V171.258C309.281 167.858 308.295 165.104 306.323 162.996C304.351 160.888 301.733 159.834 298.469 159.834C295.273 159.834 292.655 160.888 290.615 162.996C288.575 165.104 287.555 167.824 287.555 171.156V202.98C287.555 203.66 287.215 204 286.535 204H278.783C278.103 204 277.763 203.66 277.763 202.98V153.102C277.763 152.422 278.103 152.082 278.783 152.082H286.535C287.215 152.082 287.555 152.422 287.555 153.102V156.774C287.555 156.91 287.589 157.012 287.657 157.08C287.793 157.148 287.895 157.114 287.963 156.978C290.887 153.238 295.205 151.368 300.917 151.368ZM374.473 171.564C374.745 174.352 374.847 177.48 374.779 180.948C374.779 181.628 374.439 181.968 373.759 181.968H341.221C340.949 181.968 340.813 182.104 340.813 182.376C340.813 184.688 341.017 186.456 341.425 187.68C342.173 190.4 343.669 192.542 345.913 194.106C348.225 195.602 351.115 196.35 354.583 196.35C359.615 196.35 363.491 194.276 366.211 190.128C366.551 189.448 366.993 189.346 367.537 189.822L373.351 193.698C373.827 194.106 373.929 194.548 373.657 195.024C371.753 198.084 369.033 200.498 365.497 202.266C362.029 204.034 358.085 204.918 353.665 204.918C348.701 204.918 344.519 203.83 341.119 201.654C337.719 199.478 335.169 196.384 333.469 192.372C331.837 188.36 331.021 183.498 331.021 177.786C331.021 172.822 331.395 169.048 332.143 166.464C333.367 161.772 335.815 158.066 339.487 155.346C343.159 152.626 347.613 151.266 352.849 151.266C359.717 151.266 364.851 153 368.251 156.468C371.651 159.868 373.725 164.9 374.473 171.564ZM352.849 159.732C349.925 159.732 347.511 160.48 345.607 161.976C343.703 163.404 342.411 165.342 341.731 167.79C341.255 169.286 340.949 171.19 340.813 173.502C340.813 173.774 340.949 173.91 341.221 173.91H364.579C364.851 173.91 364.987 173.774 364.987 173.502C364.851 171.258 364.647 169.592 364.375 168.504C363.695 165.852 362.335 163.744 360.295 162.18C358.323 160.548 355.841 159.732 352.849 159.732ZM383.811 224.298C383.335 224.298 383.097 223.958 383.097 223.278V217.26C383.097 216.58 383.437 216.24 384.117 216.24H384.321C387.041 216.172 389.183 215.832 390.747 215.22C392.311 214.608 393.603 213.452 394.623 211.752C395.643 210.12 396.629 207.638 397.581 204.306C397.649 204.238 397.649 204.136 397.581 204C397.581 203.796 397.581 203.694 397.581 203.694L380.547 153.204L380.445 152.796C380.445 152.32 380.751 152.082 381.363 152.082H389.625C390.237 152.082 390.645 152.354 390.849 152.898L402.375 191.352C402.443 191.488 402.545 191.556 402.681 191.556C402.817 191.556 402.919 191.488 402.987 191.352L414.411 152.898C414.615 152.354 415.023 152.082 415.635 152.082H423.693C424.441 152.082 424.713 152.456 424.509 153.204L405.945 207.57C404.381 212.262 402.817 215.73 401.253 217.974C399.689 220.286 397.649 221.918 395.133 222.87C392.617 223.822 389.081 224.298 384.525 224.298H383.811Z" fill="#1163B2"/>
</svg>
