<svg width="513" height="342" viewBox="0 0 513 342" fill="none" xmlns="http://www.w3.org/2000/svg">
<rect opacity="0.7" width="513" height="342" fill="#45505A"/>
<path d="M45.3766 159C44.9366 159 44.6566 158.8 44.5366 158.4L33.6166 117.78L33.5566 117.54C33.5566 117.18 33.7766 117 34.2166 117H40.0966C40.5366 117 40.8166 117.2 40.9366 117.6L47.7766 144.96C47.8166 145.08 47.8766 145.14 47.9566 145.14C48.0366 145.14 48.0966 145.08 48.1366 144.96L54.6766 117.6C54.7966 117.2 55.0566 117 55.4566 117H61.2166C61.6566 117 61.9366 117.2 62.0566 117.6L69.0166 145.02C69.0566 145.14 69.1166 145.2 69.1966 145.2C69.2766 145.2 69.3366 145.14 69.3766 145.02L76.0966 117.6C76.2166 117.2 76.4966 117 76.9366 117H82.5166C83.0766 117 83.2966 117.26 83.1766 117.78L72.7966 158.4C72.6766 158.8 72.3966 159 71.9566 159H66.3766C65.9366 159 65.6566 158.8 65.5366 158.4L58.5166 129.78C58.4766 129.66 58.4166 129.6 58.3366 129.6C58.2566 129.56 58.1966 129.62 58.1566 129.78L51.4366 158.4C51.3166 158.8 51.0566 159 50.6566 159H45.3766ZM98.074 159.48C94.914 159.48 92.194 158.68 89.914 157.08C87.674 155.48 86.094 153.26 85.174 150.42C84.494 148.26 84.154 145.98 84.154 143.58C84.154 141.02 84.474 138.74 85.114 136.74C86.034 133.94 87.634 131.76 89.914 130.2C92.194 128.64 94.934 127.86 98.134 127.86C101.174 127.86 103.794 128.64 105.994 130.2C108.234 131.76 109.814 133.92 110.734 136.68C111.454 138.6 111.814 140.88 111.814 143.52C111.814 146.04 111.474 148.32 110.794 150.36C109.874 153.2 108.294 155.44 106.054 157.08C103.814 158.68 101.154 159.48 98.074 159.48ZM98.074 153.48C99.554 153.48 100.814 153.06 101.854 152.22C102.934 151.38 103.714 150.2 104.194 148.68C104.594 147.36 104.794 145.68 104.794 143.64C104.794 141.48 104.594 139.8 104.194 138.6C103.754 137.08 102.994 135.92 101.914 135.12C100.834 134.28 99.514 133.86 97.954 133.86C96.474 133.86 95.194 134.28 94.114 135.12C93.034 135.92 92.254 137.08 91.774 138.6C91.374 140 91.174 141.68 91.174 143.64C91.174 145.6 91.374 147.28 91.774 148.68C92.214 150.2 92.974 151.38 94.054 152.22C95.174 153.06 96.514 153.48 98.074 153.48ZM132.674 127.98C133.954 127.98 135.074 128.24 136.034 128.76C136.354 128.92 136.474 129.22 136.394 129.66L135.374 135.06C135.334 135.54 135.054 135.68 134.534 135.48C133.934 135.28 133.234 135.18 132.434 135.18C131.914 135.18 131.514 135.2 131.234 135.24C129.554 135.32 128.154 135.92 127.034 137.04C125.914 138.12 125.354 139.54 125.354 141.3V158.28C125.354 158.48 125.274 158.66 125.114 158.82C124.994 158.94 124.834 159 124.634 159H119.114C118.914 159 118.734 158.94 118.574 158.82C118.454 158.66 118.394 158.48 118.394 158.28V129.06C118.394 128.86 118.454 128.7 118.574 128.58C118.734 128.42 118.914 128.34 119.114 128.34H124.634C124.834 128.34 124.994 128.42 125.114 128.58C125.274 128.7 125.354 128.86 125.354 129.06V131.76C125.354 131.92 125.374 132.02 125.414 132.06C125.494 132.06 125.574 132 125.654 131.88C127.334 129.28 129.674 127.98 132.674 127.98ZM141.672 159C141.472 159 141.292 158.94 141.132 158.82C141.012 158.66 140.952 158.48 140.952 158.28V117.72C140.952 117.52 141.012 117.36 141.132 117.24C141.292 117.08 141.472 117 141.672 117H147.192C147.392 117 147.552 117.08 147.672 117.24C147.832 117.36 147.912 117.52 147.912 117.72V158.28C147.912 158.48 147.832 158.66 147.672 158.82C147.552 158.94 147.392 159 147.192 159H141.672ZM174.328 117.72C174.328 117.52 174.388 117.36 174.508 117.24C174.668 117.08 174.848 117 175.048 117H180.568C180.768 117 180.928 117.08 181.048 117.24C181.208 117.36 181.288 117.52 181.288 117.72V158.28C181.288 158.48 181.208 158.66 181.048 158.82C180.928 158.94 180.768 159 180.568 159H175.048C174.848 159 174.668 158.94 174.508 158.82C174.388 158.66 174.328 158.48 174.328 158.28V156.48C174.328 156.36 174.288 156.28 174.208 156.24C174.128 156.2 174.048 156.24 173.968 156.36C172.208 158.44 169.908 159.48 167.068 159.48C164.228 159.48 161.828 158.74 159.868 157.26C157.908 155.78 156.488 153.72 155.608 151.08C154.888 148.84 154.528 146.34 154.528 143.58C154.528 140.74 154.868 138.3 155.548 136.26C156.428 133.62 157.848 131.56 159.808 130.08C161.768 128.6 164.228 127.86 167.188 127.86C169.948 127.86 172.208 128.86 173.968 130.86C174.048 130.94 174.128 130.98 174.208 130.98C174.288 130.94 174.328 130.86 174.328 130.74V117.72ZM172.888 150.6C173.808 148.96 174.268 146.64 174.268 143.64C174.268 140.52 173.768 138.14 172.768 136.5C171.688 134.74 170.168 133.86 168.208 133.86C166.168 133.86 164.568 134.7 163.408 136.38C162.208 138.14 161.608 140.58 161.608 143.7C161.608 146.5 162.088 148.8 163.048 150.6C164.168 152.52 165.868 153.48 168.148 153.48C170.188 153.48 171.768 152.52 172.888 150.6ZM196.084 159C195.644 159 195.364 158.8 195.244 158.4L186.664 129.12L186.604 128.88C186.604 128.48 186.824 128.28 187.264 128.28H192.964C193.404 128.28 193.684 128.48 193.804 128.88L198.784 148.92C198.824 149.04 198.884 149.1 198.964 149.1C199.044 149.1 199.104 149.04 199.144 148.92L204.364 128.88C204.484 128.48 204.764 128.28 205.204 128.28H210.184C210.624 128.28 210.904 128.48 211.024 128.88L216.364 148.92C216.404 149.04 216.464 149.1 216.544 149.1C216.624 149.1 216.684 149.04 216.724 148.92L222.064 128.88C222.184 128.48 222.464 128.28 222.904 128.28L228.544 128.4C228.784 128.4 228.944 128.48 229.024 128.64C229.144 128.76 229.184 128.94 229.144 129.18L220.504 158.4C220.384 158.8 220.124 159 219.724 159H213.964C213.524 159 213.244 158.8 213.124 158.4L207.844 140.1C207.804 139.98 207.744 139.92 207.664 139.92C207.584 139.92 207.524 139.98 207.484 140.1L202.624 158.4C202.504 158.8 202.224 159 201.784 159H196.084ZM238.428 124.14C237.188 124.14 236.168 123.74 235.368 122.94C234.568 122.14 234.168 121.12 234.168 119.88C234.168 118.64 234.568 117.62 235.368 116.82C236.168 116.02 237.188 115.62 238.428 115.62C239.668 115.62 240.688 116.02 241.488 116.82C242.288 117.62 242.688 118.64 242.688 119.88C242.688 121.12 242.288 122.14 241.488 122.94C240.688 123.74 239.668 124.14 238.428 124.14ZM235.548 159C235.348 159 235.168 158.94 235.008 158.82C234.888 158.66 234.828 158.48 234.828 158.28V129C234.828 128.8 234.888 128.64 235.008 128.52C235.168 128.36 235.348 128.28 235.548 128.28H241.068C241.268 128.28 241.428 128.36 241.548 128.52C241.708 128.64 241.788 128.8 241.788 129V158.28C241.788 158.48 241.708 158.66 241.548 158.82C241.428 158.94 241.268 159 241.068 159H235.548ZM268.781 117.72C268.781 117.52 268.841 117.36 268.961 117.24C269.121 117.08 269.301 117 269.501 117H275.021C275.221 117 275.381 117.08 275.501 117.24C275.661 117.36 275.741 117.52 275.741 117.72V158.28C275.741 158.48 275.661 158.66 275.501 158.82C275.381 158.94 275.221 159 275.021 159H269.501C269.301 159 269.121 158.94 268.961 158.82C268.841 158.66 268.781 158.48 268.781 158.28V156.48C268.781 156.36 268.741 156.28 268.661 156.24C268.581 156.2 268.501 156.24 268.421 156.36C266.661 158.44 264.361 159.48 261.521 159.48C258.681 159.48 256.281 158.74 254.321 157.26C252.361 155.78 250.941 153.72 250.061 151.08C249.341 148.84 248.981 146.34 248.981 143.58C248.981 140.74 249.321 138.3 250.001 136.26C250.881 133.62 252.301 131.56 254.261 130.08C256.221 128.6 258.681 127.86 261.641 127.86C264.401 127.86 266.661 128.86 268.421 130.86C268.501 130.94 268.581 130.98 268.661 130.98C268.741 130.94 268.781 130.86 268.781 130.74V117.72ZM267.341 150.6C268.261 148.96 268.721 146.64 268.721 143.64C268.721 140.52 268.221 138.14 267.221 136.5C266.141 134.74 264.621 133.86 262.661 133.86C260.621 133.86 259.021 134.7 257.861 136.38C256.661 138.14 256.061 140.58 256.061 143.7C256.061 146.5 256.541 148.8 257.501 150.6C258.621 152.52 260.321 153.48 262.601 153.48C264.641 153.48 266.221 152.52 267.341 150.6ZM309.137 140.22C309.297 141.22 309.377 142.34 309.377 143.58L309.317 145.44C309.317 145.92 309.077 146.16 308.597 146.16H289.817C289.617 146.16 289.517 146.26 289.517 146.46C289.637 147.78 289.817 148.68 290.057 149.16C291.017 152.04 293.357 153.5 297.077 153.54C299.797 153.54 301.957 152.42 303.557 150.18C303.717 149.94 303.917 149.82 304.157 149.82C304.317 149.82 304.457 149.88 304.577 150L308.297 153.06C308.657 153.34 308.717 153.66 308.477 154.02C307.237 155.78 305.577 157.14 303.497 158.1C301.457 159.06 299.177 159.54 296.657 159.54C293.537 159.54 290.877 158.84 288.677 157.44C286.517 156.04 284.937 154.08 283.937 151.56C283.017 149.4 282.557 146.4 282.557 142.56C282.557 140.24 282.797 138.36 283.277 136.92C284.077 134.12 285.577 131.92 287.777 130.32C290.017 128.68 292.697 127.86 295.817 127.86C303.697 127.86 308.137 131.98 309.137 140.22ZM295.817 133.86C294.337 133.86 293.097 134.24 292.097 135C291.137 135.72 290.457 136.74 290.057 138.06C289.817 138.74 289.657 139.62 289.577 140.7C289.497 140.9 289.577 141 289.817 141H301.997C302.197 141 302.297 140.9 302.297 140.7C302.217 139.7 302.097 138.94 301.937 138.42C301.577 136.98 300.857 135.86 299.777 135.06C298.737 134.26 297.417 133.86 295.817 133.86ZM342.629 159.6C339.629 159.6 336.969 159 334.649 157.8C332.329 156.56 330.529 154.82 329.249 152.58C328.009 150.34 327.389 147.76 327.389 144.84V131.16C327.389 128.28 328.029 125.74 329.309 123.54C330.589 121.3 332.369 119.58 334.649 118.38C336.969 117.14 339.629 116.52 342.629 116.52C345.669 116.52 348.329 117.14 350.609 118.38C352.929 119.58 354.729 121.3 356.009 123.54C357.289 125.74 357.929 128.28 357.929 131.16V144.84C357.929 147.76 357.289 150.34 356.009 152.58C354.729 154.82 352.929 156.56 350.609 157.8C348.329 159 345.669 159.6 342.629 159.6ZM342.629 153.6C345.149 153.6 347.169 152.82 348.689 151.26C350.209 149.7 350.969 147.64 350.969 145.08V131.1C350.969 128.5 350.209 126.42 348.689 124.86C347.169 123.3 345.149 122.52 342.629 122.52C340.149 122.52 338.149 123.3 336.629 124.86C335.109 126.42 334.349 128.5 334.349 131.1V145.08C334.349 147.64 335.109 149.7 336.629 151.26C338.149 152.82 340.149 153.6 342.629 153.6ZM390.995 136.26C391.715 138.3 392.075 140.8 392.075 143.76C392.075 146.6 391.735 149.04 391.055 151.08C390.175 153.72 388.755 155.78 386.795 157.26C384.875 158.74 382.435 159.48 379.475 159.48C376.635 159.48 374.355 158.46 372.635 156.42C372.555 156.34 372.475 156.32 372.395 156.36C372.315 156.4 372.275 156.48 372.275 156.6V169.62C372.275 169.82 372.195 169.98 372.035 170.1C371.915 170.26 371.755 170.34 371.555 170.34H366.035C365.835 170.34 365.655 170.26 365.495 170.1C365.375 169.98 365.315 169.82 365.315 169.62V129.06C365.315 128.86 365.375 128.7 365.495 128.58C365.655 128.42 365.835 128.34 366.035 128.34H371.555C371.755 128.34 371.915 128.42 372.035 128.58C372.195 128.7 372.275 128.86 372.275 129.06V130.86C372.275 130.98 372.315 131.06 372.395 131.1C372.475 131.14 372.555 131.1 372.635 130.98C374.395 128.9 376.695 127.86 379.535 127.86C382.375 127.86 384.775 128.6 386.735 130.08C388.695 131.56 390.115 133.62 390.995 136.26ZM383.195 150.96C384.395 149.12 384.995 146.68 384.995 143.64C384.995 140.72 384.515 138.42 383.555 136.74C382.435 134.78 380.735 133.8 378.455 133.8C376.375 133.8 374.815 134.76 373.775 136.68C372.855 138.24 372.395 140.56 372.395 143.64C372.395 146.8 372.895 149.2 373.895 150.84C374.935 152.6 376.435 153.48 378.395 153.48C380.515 153.48 382.115 152.64 383.195 150.96ZM424.449 140.22C424.609 141.22 424.689 142.34 424.689 143.58L424.629 145.44C424.629 145.92 424.389 146.16 423.909 146.16H405.129C404.929 146.16 404.829 146.26 404.829 146.46C404.949 147.78 405.129 148.68 405.369 149.16C406.329 152.04 408.669 153.5 412.389 153.54C415.109 153.54 417.269 152.42 418.869 150.18C419.029 149.94 419.229 149.82 419.469 149.82C419.629 149.82 419.769 149.88 419.889 150L423.609 153.06C423.969 153.34 424.029 153.66 423.789 154.02C422.549 155.78 420.889 157.14 418.809 158.1C416.769 159.06 414.489 159.54 411.969 159.54C408.849 159.54 406.189 158.84 403.989 157.44C401.829 156.04 400.249 154.08 399.249 151.56C398.329 149.4 397.869 146.4 397.869 142.56C397.869 140.24 398.109 138.36 398.589 136.92C399.389 134.12 400.889 131.92 403.089 130.32C405.329 128.68 408.009 127.86 411.129 127.86C419.009 127.86 423.449 131.98 424.449 140.22ZM411.129 133.86C409.649 133.86 408.409 134.24 407.409 135C406.449 135.72 405.769 136.74 405.369 138.06C405.129 138.74 404.969 139.62 404.889 140.7C404.809 140.9 404.889 141 405.129 141H417.309C417.509 141 417.609 140.9 417.609 140.7C417.529 139.7 417.409 138.94 417.249 138.42C416.889 136.98 416.169 135.86 415.089 135.06C414.049 134.26 412.729 133.86 411.129 133.86ZM445.33 127.98C446.61 127.98 447.73 128.24 448.69 128.76C449.01 128.92 449.13 129.22 449.05 129.66L448.03 135.06C447.99 135.54 447.71 135.68 447.19 135.48C446.59 135.28 445.89 135.18 445.09 135.18C444.57 135.18 444.17 135.2 443.89 135.24C442.21 135.32 440.81 135.92 439.69 137.04C438.57 138.12 438.01 139.54 438.01 141.3V158.28C438.01 158.48 437.93 158.66 437.77 158.82C437.65 158.94 437.49 159 437.29 159H431.77C431.57 159 431.39 158.94 431.23 158.82C431.11 158.66 431.05 158.48 431.05 158.28V129.06C431.05 128.86 431.11 128.7 431.23 128.58C431.39 128.42 431.57 128.34 431.77 128.34H437.29C437.49 128.34 437.65 128.42 437.77 128.58C437.93 128.7 438.01 128.86 438.01 129.06V131.76C438.01 131.92 438.03 132.02 438.07 132.06C438.15 132.06 438.23 132 438.31 131.88C439.99 129.28 442.33 127.98 445.33 127.98ZM465.016 127.86C467.536 127.86 469.756 128.3 471.676 129.18C473.596 130.06 475.076 131.28 476.116 132.84C477.156 134.36 477.676 136.1 477.676 138.06V158.28C477.676 158.48 477.596 158.66 477.436 158.82C477.316 158.94 477.156 159 476.956 159H471.436C471.236 159 471.056 158.94 470.896 158.82C470.776 158.66 470.716 158.48 470.716 158.28V156.36C470.716 156.24 470.676 156.18 470.596 156.18C470.516 156.14 470.436 156.16 470.356 156.24C468.396 158.4 465.556 159.48 461.836 159.48C458.836 159.48 456.356 158.72 454.396 157.2C452.476 155.68 451.516 153.42 451.516 150.42C451.516 147.3 452.596 144.88 454.756 143.16C456.956 141.4 460.036 140.52 463.996 140.52H470.416C470.616 140.52 470.716 140.42 470.716 140.22V138.78C470.716 137.22 470.256 136.02 469.336 135.18C468.416 134.3 467.036 133.86 465.196 133.86C463.676 133.86 462.436 134.14 461.476 134.7C460.556 135.22 459.976 135.96 459.736 136.92C459.616 137.4 459.336 137.6 458.896 137.52L453.076 136.8C452.876 136.76 452.696 136.7 452.536 136.62C452.416 136.5 452.376 136.36 452.416 136.2C452.736 133.76 454.036 131.76 456.316 130.2C458.636 128.64 461.536 127.86 465.016 127.86ZM463.576 153.96C465.536 153.96 467.216 153.44 468.616 152.4C470.016 151.36 470.716 150.04 470.716 148.44V145.62C470.716 145.42 470.616 145.32 470.416 145.32H465.376C463.256 145.32 461.576 145.72 460.336 146.52C459.136 147.32 458.536 148.46 458.536 149.94C458.536 151.22 458.996 152.22 459.916 152.94C460.876 153.62 462.096 153.96 463.576 153.96ZM29.5662 188.94C32.0862 188.94 34.3062 189.46 36.2262 190.5C38.1462 191.54 39.6262 193.02 40.6662 194.94C41.7462 196.82 42.2862 199 42.2862 201.48C42.2862 203.92 41.7462 206.08 40.6662 207.96C39.5862 209.84 38.0462 211.3 36.0462 212.34C34.0862 213.34 31.8062 213.84 29.2062 213.84H19.6062C19.4062 213.84 19.3062 213.94 19.3062 214.14V230.28C19.3062 230.48 19.2262 230.66 19.0662 230.82C18.9462 230.94 18.7862 231 18.5862 231H13.0662C12.8662 231 12.6862 230.94 12.5262 230.82C12.4062 230.66 12.3462 230.48 12.3462 230.28V189.66C12.3462 189.46 12.4062 189.3 12.5262 189.18C12.6862 189.02 12.8662 188.94 13.0662 188.94H29.5662ZM28.5462 208.2C30.5862 208.2 32.2262 207.6 33.4662 206.4C34.7062 205.2 35.3262 203.62 35.3262 201.66C35.3262 199.66 34.7062 198.04 33.4662 196.8C32.2262 195.56 30.5862 194.94 28.5462 194.94H19.6062C19.4062 194.94 19.3062 195.04 19.3062 195.24V207.9C19.3062 208.1 19.4062 208.2 19.6062 208.2H28.5462ZM72.0663 212.22C72.2263 213.22 72.3063 214.34 72.3063 215.58L72.2463 217.44C72.2463 217.92 72.0063 218.16 71.5263 218.16H52.7463C52.5463 218.16 52.4463 218.26 52.4463 218.46C52.5663 219.78 52.7463 220.68 52.9863 221.16C53.9463 224.04 56.2863 225.5 60.0063 225.54C62.7263 225.54 64.8863 224.42 66.4863 222.18C66.6463 221.94 66.8463 221.82 67.0863 221.82C67.2463 221.82 67.3863 221.88 67.5063 222L71.2263 225.06C71.5863 225.34 71.6463 225.66 71.4063 226.02C70.1663 227.78 68.5063 229.14 66.4263 230.1C64.3863 231.06 62.1063 231.54 59.5863 231.54C56.4663 231.54 53.8063 230.84 51.6063 229.44C49.4463 228.04 47.8663 226.08 46.8663 223.56C45.9463 221.4 45.4863 218.4 45.4863 214.56C45.4863 212.24 45.7263 210.36 46.2063 208.92C47.0063 206.12 48.5063 203.92 50.7063 202.32C52.9463 200.68 55.6263 199.86 58.7463 199.86C66.6263 199.86 71.0663 203.98 72.0663 212.22ZM58.7463 205.86C57.2663 205.86 56.0263 206.24 55.0263 207C54.0663 207.72 53.3863 208.74 52.9863 210.06C52.7463 210.74 52.5863 211.62 52.5063 212.7C52.4263 212.9 52.5063 213 52.7463 213H64.9263C65.1263 213 65.2263 212.9 65.2263 212.7C65.1463 211.7 65.0263 210.94 64.8663 210.42C64.5063 208.98 63.7863 207.86 62.7063 207.06C61.6663 206.26 60.3463 205.86 58.7463 205.86ZM92.9473 199.98C94.2273 199.98 95.3473 200.24 96.3073 200.76C96.6273 200.92 96.7473 201.22 96.6673 201.66L95.6473 207.06C95.6073 207.54 95.3273 207.68 94.8073 207.48C94.2073 207.28 93.5073 207.18 92.7073 207.18C92.1873 207.18 91.7873 207.2 91.5073 207.24C89.8273 207.32 88.4273 207.92 87.3073 209.04C86.1873 210.12 85.6273 211.54 85.6273 213.3V230.28C85.6273 230.48 85.5473 230.66 85.3873 230.82C85.2673 230.94 85.1073 231 84.9073 231H79.3873C79.1873 231 79.0073 230.94 78.8473 230.82C78.7273 230.66 78.6673 230.48 78.6673 230.28V201.06C78.6673 200.86 78.7273 200.7 78.8473 200.58C79.0073 200.42 79.1873 200.34 79.3873 200.34H84.9073C85.1073 200.34 85.2673 200.42 85.3873 200.58C85.5473 200.7 85.6273 200.86 85.6273 201.06V203.76C85.6273 203.92 85.6473 204.02 85.6873 204.06C85.7673 204.06 85.8473 204 85.9273 203.88C87.6073 201.28 89.9473 199.98 92.9473 199.98ZM117.713 200.28C117.913 200.28 118.073 200.36 118.193 200.52C118.353 200.64 118.433 200.8 118.433 201V205.74C118.433 205.94 118.353 206.12 118.193 206.28C118.073 206.4 117.913 206.46 117.713 206.46H111.773C111.573 206.46 111.473 206.56 111.473 206.76V230.28C111.473 230.48 111.393 230.66 111.233 230.82C111.113 230.94 110.953 231 110.753 231H105.233C105.033 231 104.853 230.94 104.693 230.82C104.573 230.66 104.513 230.48 104.513 230.28V206.76C104.513 206.56 104.413 206.46 104.213 206.46H100.493C100.293 206.46 100.113 206.4 99.9532 206.28C99.8332 206.12 99.7732 205.94 99.7732 205.74V201C99.7732 200.8 99.8332 200.64 99.9532 200.52C100.113 200.36 100.293 200.28 100.493 200.28H104.213C104.413 200.28 104.513 200.18 104.513 199.98V198.9C104.513 196.3 104.853 194.3 105.533 192.9C106.213 191.46 107.333 190.44 108.893 189.84C110.453 189.24 112.653 188.96 115.493 189H117.593C117.793 189 117.953 189.08 118.073 189.24C118.233 189.36 118.313 189.52 118.313 189.72V193.92C118.313 194.12 118.233 194.3 118.073 194.46C117.953 194.58 117.793 194.64 117.593 194.64H116.033C114.313 194.64 113.113 194.98 112.433 195.66C111.793 196.34 111.473 197.58 111.473 199.38V199.98C111.473 200.18 111.573 200.28 111.773 200.28H117.713ZM135.164 231.48C132.004 231.48 129.284 230.68 127.004 229.08C124.764 227.48 123.184 225.26 122.264 222.42C121.584 220.26 121.244 217.98 121.244 215.58C121.244 213.02 121.564 210.74 122.204 208.74C123.124 205.94 124.724 203.76 127.004 202.2C129.284 200.64 132.024 199.86 135.224 199.86C138.264 199.86 140.884 200.64 143.084 202.2C145.324 203.76 146.904 205.92 147.824 208.68C148.544 210.6 148.904 212.88 148.904 215.52C148.904 218.04 148.564 220.32 147.884 222.36C146.964 225.2 145.384 227.44 143.144 229.08C140.904 230.68 138.244 231.48 135.164 231.48ZM135.164 225.48C136.644 225.48 137.904 225.06 138.944 224.22C140.024 223.38 140.804 222.2 141.284 220.68C141.684 219.36 141.884 217.68 141.884 215.64C141.884 213.48 141.684 211.8 141.284 210.6C140.844 209.08 140.084 207.92 139.004 207.12C137.924 206.28 136.604 205.86 135.044 205.86C133.564 205.86 132.284 206.28 131.204 207.12C130.124 207.92 129.344 209.08 128.864 210.6C128.464 212 128.264 213.68 128.264 215.64C128.264 217.6 128.464 219.28 128.864 220.68C129.304 222.2 130.064 223.38 131.144 224.22C132.264 225.06 133.604 225.48 135.164 225.48ZM169.764 199.98C171.044 199.98 172.164 200.24 173.124 200.76C173.444 200.92 173.564 201.22 173.484 201.66L172.464 207.06C172.424 207.54 172.144 207.68 171.624 207.48C171.024 207.28 170.324 207.18 169.524 207.18C169.004 207.18 168.604 207.2 168.324 207.24C166.644 207.32 165.244 207.92 164.124 209.04C163.004 210.12 162.444 211.54 162.444 213.3V230.28C162.444 230.48 162.364 230.66 162.204 230.82C162.084 230.94 161.924 231 161.724 231H156.204C156.004 231 155.824 230.94 155.664 230.82C155.544 230.66 155.484 230.48 155.484 230.28V201.06C155.484 200.86 155.544 200.7 155.664 200.58C155.824 200.42 156.004 200.34 156.204 200.34H161.724C161.924 200.34 162.084 200.42 162.204 200.58C162.364 200.7 162.444 200.86 162.444 201.06V203.76C162.444 203.92 162.464 204.02 162.504 204.06C162.584 204.06 162.664 204 162.744 203.88C164.424 201.28 166.764 199.98 169.764 199.98ZM210.862 199.86C213.942 199.86 216.342 200.8 218.062 202.68C219.822 204.52 220.702 207.1 220.702 210.42V230.28C220.702 230.48 220.622 230.66 220.462 230.82C220.342 230.94 220.182 231 219.982 231H214.522C214.322 231 214.142 230.94 213.982 230.82C213.862 230.66 213.802 230.48 213.802 230.28V211.86C213.802 210.02 213.302 208.56 212.302 207.48C211.342 206.4 210.042 205.86 208.402 205.86C206.762 205.86 205.422 206.4 204.382 207.48C203.342 208.56 202.822 210 202.822 211.8V230.28C202.822 230.48 202.742 230.66 202.582 230.82C202.462 230.94 202.302 231 202.102 231H196.642C196.442 231 196.262 230.94 196.102 230.82C195.982 230.66 195.922 230.48 195.922 230.28V211.86C195.922 210.02 195.422 208.56 194.422 207.48C193.422 206.4 192.102 205.86 190.462 205.86C188.942 205.86 187.682 206.3 186.682 207.18C185.722 208.06 185.162 209.26 185.002 210.78V230.28C185.002 230.48 184.922 230.66 184.762 230.82C184.642 230.94 184.482 231 184.282 231H178.762C178.562 231 178.382 230.94 178.222 230.82C178.102 230.66 178.042 230.48 178.042 230.28V201.06C178.042 200.86 178.102 200.7 178.222 200.58C178.382 200.42 178.562 200.34 178.762 200.34H184.282C184.482 200.34 184.642 200.42 184.762 200.58C184.922 200.7 185.002 200.86 185.002 201.06V203.04C185.002 203.16 185.042 203.24 185.122 203.28C185.202 203.32 185.282 203.28 185.362 203.16C186.242 202.04 187.322 201.22 188.602 200.7C189.922 200.14 191.382 199.86 192.982 199.86C194.942 199.86 196.662 200.26 198.142 201.06C199.622 201.86 200.762 203.02 201.562 204.54C201.682 204.7 201.822 204.7 201.982 204.54C202.862 202.94 204.082 201.76 205.642 201C207.202 200.24 208.942 199.86 210.862 199.86ZM239.488 199.86C242.008 199.86 244.228 200.3 246.148 201.18C248.068 202.06 249.548 203.28 250.588 204.84C251.628 206.36 252.148 208.1 252.148 210.06V230.28C252.148 230.48 252.068 230.66 251.908 230.82C251.788 230.94 251.628 231 251.428 231H245.908C245.708 231 245.528 230.94 245.368 230.82C245.248 230.66 245.188 230.48 245.188 230.28V228.36C245.188 228.24 245.148 228.18 245.068 228.18C244.988 228.14 244.908 228.16 244.828 228.24C242.868 230.4 240.028 231.48 236.308 231.48C233.308 231.48 230.828 230.72 228.868 229.2C226.948 227.68 225.988 225.42 225.988 222.42C225.988 219.3 227.068 216.88 229.228 215.16C231.428 213.4 234.508 212.52 238.468 212.52H244.888C245.088 212.52 245.188 212.42 245.188 212.22V210.78C245.188 209.22 244.728 208.02 243.808 207.18C242.888 206.3 241.508 205.86 239.668 205.86C238.148 205.86 236.908 206.14 235.948 206.7C235.028 207.22 234.448 207.96 234.208 208.92C234.088 209.4 233.808 209.6 233.368 209.52L227.548 208.8C227.348 208.76 227.168 208.7 227.008 208.62C226.888 208.5 226.848 208.36 226.888 208.2C227.208 205.76 228.508 203.76 230.788 202.2C233.108 200.64 236.008 199.86 239.488 199.86ZM238.048 225.96C240.008 225.96 241.688 225.44 243.088 224.4C244.488 223.36 245.188 222.04 245.188 220.44V217.62C245.188 217.42 245.088 217.32 244.888 217.32H239.848C237.728 217.32 236.048 217.72 234.808 218.52C233.608 219.32 233.008 220.46 233.008 221.94C233.008 223.22 233.468 224.22 234.388 224.94C235.348 225.62 236.568 225.96 238.048 225.96ZM273.836 199.86C277.076 199.86 279.656 200.82 281.576 202.74C283.536 204.66 284.516 207.28 284.516 210.6V230.28C284.516 230.48 284.436 230.66 284.276 230.82C284.156 230.94 283.996 231 283.796 231H278.276C278.076 231 277.896 230.94 277.736 230.82C277.616 230.66 277.556 230.48 277.556 230.28V212.04C277.556 210.2 277.036 208.72 275.996 207.6C274.956 206.44 273.576 205.86 271.856 205.86C270.136 205.86 268.736 206.42 267.656 207.54C266.616 208.66 266.096 210.14 266.096 211.98V230.28C266.096 230.48 266.016 230.66 265.856 230.82C265.736 230.94 265.576 231 265.376 231H259.856C259.656 231 259.476 230.94 259.316 230.82C259.196 230.66 259.136 230.48 259.136 230.28V201.06C259.136 200.86 259.196 200.7 259.316 200.58C259.476 200.42 259.656 200.34 259.856 200.34H265.376C265.576 200.34 265.736 200.42 265.856 200.58C266.016 200.7 266.096 200.86 266.096 201.06V202.98C266.096 203.1 266.136 203.18 266.216 203.22C266.296 203.26 266.356 203.22 266.396 203.1C268.036 200.94 270.516 199.86 273.836 199.86ZM304.318 231.48C301.238 231.48 298.578 230.7 296.338 229.14C294.098 227.54 292.538 225.4 291.658 222.72C291.018 220.92 290.698 218.52 290.698 215.52C290.698 212.64 291.018 210.28 291.658 208.44C292.498 205.8 294.038 203.72 296.278 202.2C298.558 200.64 301.238 199.86 304.318 199.86C307.438 199.86 310.158 200.64 312.478 202.2C314.798 203.76 316.338 205.72 317.098 208.08C317.298 208.72 317.438 209.36 317.518 210V210.12C317.518 210.52 317.298 210.76 316.858 210.84L311.458 211.62H311.338C310.978 211.62 310.738 211.42 310.618 211.02C310.618 210.82 310.598 210.66 310.558 210.54C310.478 210.22 310.398 209.94 310.318 209.7C309.958 208.58 309.238 207.66 308.158 206.94C307.078 206.22 305.798 205.86 304.318 205.86C302.798 205.86 301.498 206.26 300.418 207.06C299.378 207.82 298.678 208.88 298.318 210.24C297.918 211.52 297.718 213.3 297.718 215.58C297.718 217.78 297.898 219.56 298.258 220.92C298.658 222.32 299.378 223.44 300.418 224.28C301.458 225.08 302.758 225.48 304.318 225.48C305.838 225.48 307.138 225.1 308.218 224.34C309.338 223.54 310.058 222.48 310.378 221.16C310.418 221.08 310.438 220.98 310.438 220.86C310.478 220.82 310.498 220.76 310.498 220.68C310.618 220.2 310.898 220 311.338 220.08L316.738 220.92C316.938 220.96 317.098 221.06 317.218 221.22C317.378 221.34 317.438 221.52 317.398 221.76C317.278 222.4 317.178 222.86 317.098 223.14C316.338 225.7 314.798 227.74 312.478 229.26C310.158 230.74 307.438 231.48 304.318 231.48ZM348.98 212.22C349.14 213.22 349.22 214.34 349.22 215.58L349.16 217.44C349.16 217.92 348.92 218.16 348.44 218.16H329.66C329.46 218.16 329.36 218.26 329.36 218.46C329.48 219.78 329.66 220.68 329.9 221.16C330.86 224.04 333.2 225.5 336.92 225.54C339.64 225.54 341.8 224.42 343.4 222.18C343.56 221.94 343.76 221.82 344 221.82C344.16 221.82 344.3 221.88 344.42 222L348.14 225.06C348.5 225.34 348.56 225.66 348.32 226.02C347.08 227.78 345.42 229.14 343.34 230.1C341.3 231.06 339.02 231.54 336.5 231.54C333.38 231.54 330.72 230.84 328.52 229.44C326.36 228.04 324.78 226.08 323.78 223.56C322.86 221.4 322.4 218.4 322.4 214.56C322.4 212.24 322.64 210.36 323.12 208.92C323.92 206.12 325.42 203.92 327.62 202.32C329.86 200.68 332.54 199.86 335.66 199.86C343.54 199.86 347.98 203.98 348.98 212.22ZM335.66 205.86C334.18 205.86 332.94 206.24 331.94 207C330.98 207.72 330.3 208.74 329.9 210.06C329.66 210.74 329.5 211.62 329.42 212.7C329.34 212.9 329.42 213 329.66 213H341.84C342.04 213 342.14 212.9 342.14 212.7C342.06 211.7 341.94 210.94 341.78 210.42C341.42 208.98 340.7 207.86 339.62 207.06C338.58 206.26 337.26 205.86 335.66 205.86ZM381.813 231.48C378.693 231.48 375.973 230.98 373.653 229.98C371.333 228.98 369.533 227.58 368.253 225.78C367.013 223.98 366.393 221.86 366.393 219.42V217.92C366.393 217.72 366.453 217.56 366.573 217.44C366.733 217.28 366.913 217.2 367.113 217.2H372.453C372.653 217.2 372.813 217.28 372.933 217.44C373.093 217.56 373.173 217.72 373.173 217.92V219.06C373.173 220.9 373.993 222.44 375.633 223.68C377.273 224.88 379.513 225.48 382.353 225.48C384.793 225.48 386.633 224.96 387.873 223.92C389.113 222.88 389.733 221.54 389.733 219.9C389.733 218.78 389.393 217.84 388.713 217.08C388.033 216.28 387.053 215.56 385.773 214.92C384.533 214.28 382.653 213.48 380.133 212.52C377.293 211.48 374.993 210.5 373.233 209.58C371.473 208.66 369.993 207.42 368.793 205.86C367.633 204.26 367.053 202.28 367.053 199.92C367.053 196.4 368.333 193.62 370.893 191.58C373.453 189.54 376.873 188.52 381.153 188.52C384.153 188.52 386.793 189.04 389.073 190.08C391.393 191.12 393.193 192.58 394.473 194.46C395.753 196.3 396.393 198.44 396.393 200.88V201.9C396.393 202.1 396.313 202.28 396.153 202.44C396.033 202.56 395.873 202.62 395.673 202.62H390.273C390.073 202.62 389.893 202.56 389.733 202.44C389.613 202.28 389.553 202.1 389.553 201.9V201.24C389.553 199.36 388.773 197.78 387.213 196.5C385.693 195.18 383.573 194.52 380.853 194.52C378.653 194.52 376.933 194.98 375.693 195.9C374.493 196.82 373.893 198.12 373.893 199.8C373.893 201 374.213 201.98 374.853 202.74C375.493 203.5 376.453 204.2 377.733 204.84C379.013 205.44 380.993 206.22 383.673 207.18C386.513 208.26 388.773 209.24 390.453 210.12C392.173 211 393.633 212.24 394.833 213.84C396.073 215.4 396.693 217.36 396.693 219.72C396.693 223.32 395.353 226.18 392.673 228.3C390.033 230.42 386.413 231.48 381.813 231.48ZM419.302 205.26C419.302 205.46 419.222 205.64 419.062 205.8C418.942 205.92 418.782 205.98 418.582 205.98H412.462C412.262 205.98 412.162 206.08 412.162 206.28V220.74C412.162 222.26 412.482 223.36 413.122 224.04C413.802 224.72 414.862 225.06 416.302 225.06H418.102C418.302 225.06 418.462 225.14 418.582 225.3C418.742 225.42 418.822 225.58 418.822 225.78V230.28C418.822 230.72 418.582 230.98 418.102 231.06L414.982 231.12C411.822 231.12 409.462 230.58 407.902 229.5C406.342 228.42 405.542 226.38 405.502 223.38V206.28C405.502 206.08 405.402 205.98 405.202 205.98H401.782C401.582 205.98 401.402 205.92 401.242 205.8C401.122 205.64 401.062 205.46 401.062 205.26V201.06C401.062 200.86 401.122 200.7 401.242 200.58C401.402 200.42 401.582 200.34 401.782 200.34H405.202C405.402 200.34 405.502 200.24 405.502 200.04V193.02C405.502 192.82 405.562 192.66 405.682 192.54C405.842 192.38 406.022 192.3 406.222 192.3H411.442C411.642 192.3 411.802 192.38 411.922 192.54C412.082 192.66 412.162 192.82 412.162 193.02V200.04C412.162 200.24 412.262 200.34 412.462 200.34H418.582C418.782 200.34 418.942 200.42 419.062 200.58C419.222 200.7 419.302 200.86 419.302 201.06V205.26ZM437.184 199.86C439.704 199.86 441.924 200.3 443.844 201.18C445.764 202.06 447.244 203.28 448.284 204.84C449.324 206.36 449.844 208.1 449.844 210.06V230.28C449.844 230.48 449.764 230.66 449.604 230.82C449.484 230.94 449.324 231 449.124 231H443.604C443.404 231 443.224 230.94 443.064 230.82C442.944 230.66 442.884 230.48 442.884 230.28V228.36C442.884 228.24 442.844 228.18 442.764 228.18C442.684 228.14 442.604 228.16 442.524 228.24C440.564 230.4 437.724 231.48 434.004 231.48C431.004 231.48 428.524 230.72 426.564 229.2C424.644 227.68 423.684 225.42 423.684 222.42C423.684 219.3 424.764 216.88 426.924 215.16C429.124 213.4 432.204 212.52 436.164 212.52H442.584C442.784 212.52 442.884 212.42 442.884 212.22V210.78C442.884 209.22 442.424 208.02 441.504 207.18C440.584 206.3 439.204 205.86 437.364 205.86C435.844 205.86 434.604 206.14 433.644 206.7C432.724 207.22 432.144 207.96 431.904 208.92C431.784 209.4 431.504 209.6 431.064 209.52L425.244 208.8C425.044 208.76 424.864 208.7 424.704 208.62C424.584 208.5 424.544 208.36 424.584 208.2C424.904 205.76 426.204 203.76 428.484 202.2C430.804 200.64 433.704 199.86 437.184 199.86ZM435.744 225.96C437.704 225.96 439.384 225.44 440.784 224.4C442.184 223.36 442.884 222.04 442.884 220.44V217.62C442.884 217.42 442.784 217.32 442.584 217.32H437.544C435.424 217.32 433.744 217.72 432.504 218.52C431.304 219.32 430.704 220.46 430.704 221.94C430.704 223.22 431.164 224.22 432.084 224.94C433.044 225.62 434.264 225.96 435.744 225.96ZM472.623 205.26C472.623 205.46 472.543 205.64 472.383 205.8C472.263 205.92 472.103 205.98 471.903 205.98H465.783C465.583 205.98 465.483 206.08 465.483 206.28V220.74C465.483 222.26 465.803 223.36 466.443 224.04C467.123 224.72 468.183 225.06 469.623 225.06H471.423C471.623 225.06 471.783 225.14 471.903 225.3C472.063 225.42 472.143 225.58 472.143 225.78V230.28C472.143 230.72 471.903 230.98 471.423 231.06L468.303 231.12C465.143 231.12 462.783 230.58 461.223 229.5C459.663 228.42 458.863 226.38 458.823 223.38V206.28C458.823 206.08 458.723 205.98 458.523 205.98H455.103C454.903 205.98 454.723 205.92 454.563 205.8C454.443 205.64 454.383 205.46 454.383 205.26V201.06C454.383 200.86 454.443 200.7 454.563 200.58C454.723 200.42 454.903 200.34 455.103 200.34H458.523C458.723 200.34 458.823 200.24 458.823 200.04V193.02C458.823 192.82 458.883 192.66 459.003 192.54C459.163 192.38 459.343 192.3 459.543 192.3H464.763C464.963 192.3 465.123 192.38 465.243 192.54C465.403 192.66 465.483 192.82 465.483 193.02V200.04C465.483 200.24 465.583 200.34 465.783 200.34H471.903C472.103 200.34 472.263 200.42 472.383 200.58C472.543 200.7 472.623 200.86 472.623 201.06V205.26ZM490.204 231.36C487.684 231.36 485.464 231 483.544 230.28C481.664 229.52 480.204 228.5 479.164 227.22C478.124 225.9 477.604 224.44 477.604 222.84V222.3C477.604 222.1 477.664 221.94 477.784 221.82C477.944 221.66 478.124 221.58 478.324 221.58H483.604C483.804 221.58 483.964 221.66 484.084 221.82C484.244 221.94 484.324 222.1 484.324 222.3V222.42C484.324 223.42 484.864 224.3 485.944 225.06C487.064 225.78 488.464 226.14 490.144 226.14C491.744 226.14 493.044 225.82 494.044 225.18C495.044 224.5 495.544 223.66 495.544 222.66C495.544 221.74 495.124 221.06 494.284 220.62C493.484 220.14 492.164 219.64 490.324 219.12L488.044 218.4C486.004 217.8 484.284 217.16 482.884 216.48C481.484 215.8 480.304 214.88 479.344 213.72C478.384 212.52 477.904 211 477.904 209.16C477.904 206.36 479.004 204.14 481.204 202.5C483.404 200.82 486.304 199.98 489.904 199.98C492.344 199.98 494.484 200.38 496.324 201.18C498.164 201.94 499.584 203.02 500.584 204.42C501.584 205.78 502.084 207.34 502.084 209.1C502.084 209.3 502.004 209.48 501.844 209.64C501.724 209.76 501.564 209.82 501.364 209.82H496.264C496.064 209.82 495.884 209.76 495.724 209.64C495.604 209.48 495.544 209.3 495.544 209.1C495.544 208.06 495.024 207.2 493.984 206.52C492.984 205.8 491.604 205.44 489.844 205.44C488.284 205.44 487.004 205.74 486.004 206.34C485.044 206.9 484.564 207.7 484.564 208.74C484.564 209.7 485.024 210.44 485.944 210.96C486.904 211.44 488.484 211.98 490.684 212.58L492.004 212.94C494.124 213.58 495.904 214.24 497.344 214.92C498.784 215.56 500.004 216.48 501.004 217.68C502.004 218.84 502.504 220.36 502.504 222.24C502.504 225.08 501.384 227.32 499.144 228.96C496.904 230.56 493.924 231.36 490.204 231.36Z" fill="white"/>
</svg>
