<svg width="3000" height="2000" viewBox="0 0 3000 2000" fill="none" xmlns="http://www.w3.org/2000/svg">
<rect opacity="0.7" width="3000" height="2000" fill="#0C4072"/>
<path d="M833.821 903C831.475 903 829.981 901.933 829.341 899.8L771.101 683.16L770.781 681.88C770.781 679.96 771.955 679 774.301 679H805.661C808.008 679 809.501 680.067 810.141 682.2L846.621 828.12C846.835 828.76 847.155 829.08 847.581 829.08C848.008 829.08 848.328 828.76 848.541 828.12L883.421 682.2C884.061 680.067 885.448 679 887.581 679H918.301C920.648 679 922.141 680.067 922.781 682.2L959.901 828.44C960.115 829.08 960.435 829.4 960.861 829.4C961.288 829.4 961.608 829.08 961.821 828.44L997.661 682.2C998.301 680.067 999.795 679 1002.14 679H1031.9C1034.89 679 1036.06 680.387 1035.42 683.16L980.061 899.8C979.421 901.933 977.928 903 975.581 903H945.821C943.475 903 941.981 901.933 941.341 899.8L903.901 747.16C903.688 746.52 903.368 746.2 902.941 746.2C902.515 745.987 902.195 746.307 901.981 747.16L866.141 899.8C865.501 901.933 864.115 903 861.981 903H833.821ZM1114.87 905.56C1098.02 905.56 1083.51 901.293 1071.35 892.76C1059.41 884.227 1050.98 872.387 1046.07 857.24C1042.45 845.72 1040.63 833.56 1040.63 820.76C1040.63 807.107 1042.34 794.947 1045.75 784.28C1050.66 769.347 1059.19 757.72 1071.35 749.4C1083.51 741.08 1098.13 736.92 1115.19 736.92C1131.41 736.92 1145.38 741.08 1157.11 749.4C1169.06 757.72 1177.49 769.24 1182.39 783.96C1186.23 794.2 1188.15 806.36 1188.15 820.44C1188.15 833.88 1186.34 846.04 1182.71 856.92C1177.81 872.067 1169.38 884.013 1157.43 892.76C1145.49 901.293 1131.3 905.56 1114.87 905.56ZM1114.87 873.56C1122.77 873.56 1129.49 871.32 1135.03 866.84C1140.79 862.36 1144.95 856.067 1147.51 847.96C1149.65 840.92 1150.71 831.96 1150.71 821.08C1150.71 809.56 1149.65 800.6 1147.51 794.2C1145.17 786.093 1141.11 779.907 1135.35 775.64C1129.59 771.16 1122.55 768.92 1114.23 768.92C1106.34 768.92 1099.51 771.16 1093.75 775.64C1087.99 779.907 1083.83 786.093 1081.27 794.2C1079.14 801.667 1078.07 810.627 1078.07 821.08C1078.07 831.533 1079.14 840.493 1081.27 847.96C1083.62 856.067 1087.67 862.36 1093.43 866.84C1099.41 871.32 1106.55 873.56 1114.87 873.56ZM1299.41 737.56C1306.23 737.56 1312.21 738.947 1317.33 741.72C1319.03 742.573 1319.67 744.173 1319.25 746.52L1313.81 775.32C1313.59 777.88 1312.1 778.627 1309.33 777.56C1306.13 776.493 1302.39 775.96 1298.13 775.96C1295.35 775.96 1293.22 776.067 1291.73 776.28C1282.77 776.707 1275.3 779.907 1269.33 785.88C1263.35 791.64 1260.37 799.213 1260.37 808.6V899.16C1260.37 900.227 1259.94 901.187 1259.09 902.04C1258.45 902.68 1257.59 903 1256.53 903H1227.09C1226.02 903 1225.06 902.68 1224.21 902.04C1223.57 901.187 1223.25 900.227 1223.25 899.16V743.32C1223.25 742.253 1223.57 741.4 1224.21 740.76C1225.06 739.907 1226.02 739.48 1227.09 739.48H1256.53C1257.59 739.48 1258.45 739.907 1259.09 740.76C1259.94 741.4 1260.37 742.253 1260.37 743.32V757.72C1260.37 758.573 1260.47 759.107 1260.69 759.32C1261.11 759.32 1261.54 759 1261.97 758.36C1270.93 744.493 1283.41 737.56 1299.41 737.56ZM1347.4 903C1346.33 903 1345.37 902.68 1344.52 902.04C1343.88 901.187 1343.56 900.227 1343.56 899.16V682.84C1343.56 681.773 1343.88 680.92 1344.52 680.28C1345.37 679.427 1346.33 679 1347.4 679H1376.84C1377.91 679 1378.76 679.427 1379.4 680.28C1380.25 680.92 1380.68 681.773 1380.68 682.84V798.36C1380.68 799 1380.89 799.427 1381.32 799.64C1381.75 799.853 1382.17 799.64 1382.6 799L1434.44 741.72C1435.93 740.227 1437.53 739.48 1439.24 739.48H1473.16C1475.29 739.48 1476.36 740.227 1476.36 741.72C1476.36 742.36 1476.04 743.213 1475.4 744.28L1434.76 792.92C1434.12 793.56 1434.01 794.307 1434.44 795.16L1482.44 898.52C1482.87 899.373 1483.08 900.013 1483.08 900.44C1483.08 902.147 1481.91 903 1479.56 903H1448.52C1446.39 903 1444.89 902.04 1444.04 900.12L1409.16 818.84C1408.95 818.413 1408.52 818.2 1407.88 818.2C1407.45 817.987 1407.13 818.093 1406.92 818.52L1381.32 847.96C1380.89 848.813 1380.68 849.56 1380.68 850.2V899.16C1380.68 900.227 1380.25 901.187 1379.4 902.04C1378.76 902.68 1377.91 903 1376.84 903H1347.4ZM1595.87 739.16C1596.93 739.16 1597.79 739.587 1598.43 740.44C1599.28 741.08 1599.71 741.933 1599.71 743V768.28C1599.71 769.347 1599.28 770.307 1598.43 771.16C1597.79 771.8 1596.93 772.12 1595.87 772.12H1564.19C1563.12 772.12 1562.59 772.653 1562.59 773.72V899.16C1562.59 900.227 1562.16 901.187 1561.31 902.04C1560.67 902.68 1559.81 903 1558.75 903H1529.31C1528.24 903 1527.28 902.68 1526.43 902.04C1525.79 901.187 1525.47 900.227 1525.47 899.16V773.72C1525.47 772.653 1524.93 772.12 1523.87 772.12H1504.03C1502.96 772.12 1502 771.8 1501.15 771.16C1500.51 770.307 1500.19 769.347 1500.19 768.28V743C1500.19 741.933 1500.51 741.08 1501.15 740.44C1502 739.587 1502.96 739.16 1504.03 739.16H1523.87C1524.93 739.16 1525.47 738.627 1525.47 737.56V731.8C1525.47 717.933 1527.28 707.267 1530.91 699.8C1534.53 692.12 1540.51 686.68 1548.83 683.48C1557.15 680.28 1568.88 678.787 1584.03 679H1595.23C1596.29 679 1597.15 679.427 1597.79 680.28C1598.64 680.92 1599.07 681.773 1599.07 682.84V705.24C1599.07 706.307 1598.64 707.267 1597.79 708.12C1597.15 708.76 1596.29 709.08 1595.23 709.08H1586.91C1577.73 709.08 1571.33 710.893 1567.71 714.52C1564.29 718.147 1562.59 724.76 1562.59 734.36V737.56C1562.59 738.627 1563.12 739.16 1564.19 739.16H1595.87ZM1688.94 905.56C1672.08 905.56 1657.58 901.293 1645.42 892.76C1633.47 884.227 1625.04 872.387 1620.14 857.24C1616.51 845.72 1614.7 833.56 1614.7 820.76C1614.7 807.107 1616.4 794.947 1619.82 784.28C1624.72 769.347 1633.26 757.72 1645.42 749.4C1657.58 741.08 1672.19 736.92 1689.26 736.92C1705.47 736.92 1719.44 741.08 1731.18 749.4C1743.12 757.72 1751.55 769.24 1756.46 783.96C1760.3 794.2 1762.22 806.36 1762.22 820.44C1762.22 833.88 1760.4 846.04 1756.78 856.92C1751.87 872.067 1743.44 884.013 1731.5 892.76C1719.55 901.293 1705.36 905.56 1688.94 905.56ZM1688.94 873.56C1696.83 873.56 1703.55 871.32 1709.1 866.84C1714.86 862.36 1719.02 856.067 1721.58 847.96C1723.71 840.92 1724.78 831.96 1724.78 821.08C1724.78 809.56 1723.71 800.6 1721.58 794.2C1719.23 786.093 1715.18 779.907 1709.42 775.64C1703.66 771.16 1696.62 768.92 1688.3 768.92C1680.4 768.92 1673.58 771.16 1667.82 775.64C1662.06 779.907 1657.9 786.093 1655.34 794.2C1653.2 801.667 1652.14 810.627 1652.14 821.08C1652.14 831.533 1653.2 840.493 1655.34 847.96C1657.68 856.067 1661.74 862.36 1667.5 866.84C1673.47 871.32 1680.62 873.56 1688.94 873.56ZM1873.47 737.56C1880.3 737.56 1886.27 738.947 1891.39 741.72C1893.1 742.573 1893.74 744.173 1893.31 746.52L1887.87 775.32C1887.66 777.88 1886.16 778.627 1883.39 777.56C1880.19 776.493 1876.46 775.96 1872.19 775.96C1869.42 775.96 1867.28 776.067 1865.79 776.28C1856.83 776.707 1849.36 779.907 1843.39 785.88C1837.42 791.64 1834.43 799.213 1834.43 808.6V899.16C1834.43 900.227 1834 901.187 1833.15 902.04C1832.51 902.68 1831.66 903 1830.59 903H1801.15C1800.08 903 1799.12 902.68 1798.27 902.04C1797.63 901.187 1797.31 900.227 1797.31 899.16V743.32C1797.31 742.253 1797.63 741.4 1798.27 740.76C1799.12 739.907 1800.08 739.48 1801.15 739.48H1830.59C1831.66 739.48 1832.51 739.907 1833.15 740.76C1834 741.4 1834.43 742.253 1834.43 743.32V757.72C1834.43 758.573 1834.54 759.107 1834.75 759.32C1835.18 759.32 1835.6 759 1836.03 758.36C1844.99 744.493 1857.47 737.56 1873.47 737.56ZM1982.66 905.56C1966.23 905.56 1952.04 901.4 1940.1 893.08C1928.15 884.547 1919.83 873.133 1915.14 858.84C1911.72 849.24 1910.02 836.44 1910.02 820.44C1910.02 805.08 1911.72 792.493 1915.14 782.68C1919.62 768.6 1927.83 757.507 1939.78 749.4C1951.94 741.08 1966.23 736.92 1982.66 736.92C1999.3 736.92 2013.8 741.08 2026.18 749.4C2038.55 757.72 2046.76 768.173 2050.82 780.76C2051.88 784.173 2052.63 787.587 2053.06 791V791.64C2053.06 793.773 2051.88 795.053 2049.54 795.48L2020.74 799.64H2020.1C2018.18 799.64 2016.9 798.573 2016.26 796.44C2016.26 795.373 2016.15 794.52 2015.94 793.88C2015.51 792.173 2015.08 790.68 2014.66 789.4C2012.74 783.427 2008.9 778.52 2003.14 774.68C1997.38 770.84 1990.55 768.92 1982.66 768.92C1974.55 768.92 1967.62 771.053 1961.86 775.32C1956.31 779.373 1952.58 785.027 1950.66 792.28C1948.52 799.107 1947.46 808.6 1947.46 820.76C1947.46 832.493 1948.42 841.987 1950.34 849.24C1952.47 856.707 1956.31 862.68 1961.86 867.16C1967.4 871.427 1974.34 873.56 1982.66 873.56C1990.76 873.56 1997.7 871.533 2003.46 867.48C2009.43 863.213 2013.27 857.56 2014.98 850.52C2015.19 850.093 2015.3 849.56 2015.3 848.92C2015.51 848.707 2015.62 848.387 2015.62 847.96C2016.26 845.4 2017.75 844.333 2020.1 844.76L2048.9 849.24C2049.96 849.453 2050.82 849.987 2051.46 850.84C2052.31 851.48 2052.63 852.44 2052.42 853.72C2051.78 857.133 2051.24 859.587 2050.82 861.08C2046.76 874.733 2038.55 885.613 2026.18 893.72C2013.8 901.613 1999.3 905.56 1982.66 905.56ZM2220.85 802.84C2221.71 808.173 2222.13 814.147 2222.13 820.76L2221.81 830.68C2221.81 833.24 2220.53 834.52 2217.97 834.52H2117.81C2116.75 834.52 2116.21 835.053 2116.21 836.12C2116.85 843.16 2117.81 847.96 2119.09 850.52C2124.21 865.88 2136.69 873.667 2156.53 873.88C2171.04 873.88 2182.56 867.907 2191.09 855.96C2191.95 854.68 2193.01 854.04 2194.29 854.04C2195.15 854.04 2195.89 854.36 2196.53 855L2216.37 871.32C2218.29 872.813 2218.61 874.52 2217.33 876.44C2210.72 885.827 2201.87 893.08 2190.77 898.2C2179.89 903.32 2167.73 905.88 2154.29 905.88C2137.65 905.88 2123.47 902.147 2111.73 894.68C2100.21 887.213 2091.79 876.76 2086.45 863.32C2081.55 851.8 2079.09 835.8 2079.09 815.32C2079.09 802.947 2080.37 792.92 2082.93 785.24C2087.2 770.307 2095.2 758.573 2106.93 750.04C2118.88 741.293 2133.17 736.92 2149.81 736.92C2191.84 736.92 2215.52 758.893 2220.85 802.84ZM2149.81 768.92C2141.92 768.92 2135.31 770.947 2129.97 775C2124.85 778.84 2121.23 784.28 2119.09 791.32C2117.81 794.947 2116.96 799.64 2116.53 805.4C2116.11 806.467 2116.53 807 2117.81 807H2182.77C2183.84 807 2184.37 806.467 2184.37 805.4C2183.95 800.067 2183.31 796.013 2182.45 793.24C2180.53 785.56 2176.69 779.587 2170.93 775.32C2165.39 771.053 2158.35 768.92 2149.81 768.92ZM1113.77 1356.56C1097.13 1356.56 1082.63 1353.89 1070.25 1348.56C1057.88 1343.23 1048.28 1335.76 1041.45 1326.16C1034.84 1316.56 1031.53 1305.25 1031.53 1292.24V1284.24C1031.53 1283.17 1031.85 1282.32 1032.49 1281.68C1033.35 1280.83 1034.31 1280.4 1035.37 1280.4H1063.85C1064.92 1280.4 1065.77 1280.83 1066.41 1281.68C1067.27 1282.32 1067.69 1283.17 1067.69 1284.24V1290.32C1067.69 1300.13 1072.07 1308.35 1080.81 1314.96C1089.56 1321.36 1101.51 1324.56 1116.65 1324.56C1129.67 1324.56 1139.48 1321.79 1146.09 1316.24C1152.71 1310.69 1156.01 1303.55 1156.01 1294.8C1156.01 1288.83 1154.2 1283.81 1150.57 1279.76C1146.95 1275.49 1141.72 1271.65 1134.89 1268.24C1128.28 1264.83 1118.25 1260.56 1104.81 1255.44C1089.67 1249.89 1077.4 1244.67 1068.01 1239.76C1058.63 1234.85 1050.73 1228.24 1044.33 1219.92C1038.15 1211.39 1035.05 1200.83 1035.05 1188.24C1035.05 1169.47 1041.88 1154.64 1055.53 1143.76C1069.19 1132.88 1087.43 1127.44 1110.25 1127.44C1126.25 1127.44 1140.33 1130.21 1152.49 1135.76C1164.87 1141.31 1174.47 1149.09 1181.29 1159.12C1188.12 1168.93 1191.53 1180.35 1191.53 1193.36V1198.8C1191.53 1199.87 1191.11 1200.83 1190.25 1201.68C1189.61 1202.32 1188.76 1202.64 1187.69 1202.64H1158.89C1157.83 1202.64 1156.87 1202.32 1156.01 1201.68C1155.37 1200.83 1155.05 1199.87 1155.05 1198.8V1195.28C1155.05 1185.25 1150.89 1176.83 1142.57 1170C1134.47 1162.96 1123.16 1159.44 1108.65 1159.44C1096.92 1159.44 1087.75 1161.89 1081.13 1166.8C1074.73 1171.71 1071.53 1178.64 1071.53 1187.6C1071.53 1194 1073.24 1199.23 1076.65 1203.28C1080.07 1207.33 1085.19 1211.07 1092.01 1214.48C1098.84 1217.68 1109.4 1221.84 1123.69 1226.96C1138.84 1232.72 1150.89 1237.95 1159.85 1242.64C1169.03 1247.33 1176.81 1253.95 1183.21 1262.48C1189.83 1270.8 1193.13 1281.25 1193.13 1293.84C1193.13 1313.04 1185.99 1328.29 1171.69 1339.6C1157.61 1350.91 1138.31 1356.56 1113.77 1356.56ZM1323.64 1194.32C1323.64 1193.25 1323.96 1192.4 1324.6 1191.76C1325.45 1190.91 1326.41 1190.48 1327.48 1190.48H1356.6C1357.66 1190.48 1358.52 1190.91 1359.16 1191.76C1360.01 1192.4 1360.44 1193.25 1360.44 1194.32V1350.16C1360.44 1351.23 1360.01 1352.19 1359.16 1353.04C1358.52 1353.68 1357.66 1354 1356.6 1354H1327.48C1326.41 1354 1325.45 1353.68 1324.6 1353.04C1323.96 1352.19 1323.64 1351.23 1323.64 1350.16V1339.92C1323.64 1339.28 1323.42 1338.85 1323 1338.64C1322.57 1338.43 1322.14 1338.64 1321.72 1339.28C1312.97 1350.59 1299.85 1356.24 1282.36 1356.24C1266.14 1356.24 1252.49 1351.55 1241.4 1342.16C1230.52 1332.77 1225.08 1319.44 1225.08 1302.16V1194.32C1225.08 1193.25 1225.4 1192.4 1226.04 1191.76C1226.89 1190.91 1227.85 1190.48 1228.92 1190.48H1258.36C1259.42 1190.48 1260.28 1190.91 1260.92 1191.76C1261.77 1192.4 1262.2 1193.25 1262.2 1194.32V1291.6C1262.2 1301.63 1264.76 1309.63 1269.88 1315.6C1275.21 1321.57 1282.57 1324.56 1291.96 1324.56C1301.56 1324.56 1309.24 1321.57 1315 1315.6C1320.76 1309.63 1323.64 1301.63 1323.64 1291.6V1194.32ZM1476.28 1188.56C1483.11 1188.56 1489.08 1189.95 1494.2 1192.72C1495.91 1193.57 1496.55 1195.17 1496.12 1197.52L1490.68 1226.32C1490.47 1228.88 1488.97 1229.63 1486.2 1228.56C1483 1227.49 1479.27 1226.96 1475 1226.96C1472.23 1226.96 1470.09 1227.07 1468.6 1227.28C1459.64 1227.71 1452.17 1230.91 1446.2 1236.88C1440.23 1242.64 1437.24 1250.21 1437.24 1259.6V1350.16C1437.24 1351.23 1436.81 1352.19 1435.96 1353.04C1435.32 1353.68 1434.47 1354 1433.4 1354H1403.96C1402.89 1354 1401.93 1353.68 1401.08 1353.04C1400.44 1352.19 1400.12 1351.23 1400.12 1350.16V1194.32C1400.12 1193.25 1400.44 1192.4 1401.08 1191.76C1401.93 1190.91 1402.89 1190.48 1403.96 1190.48H1433.4C1434.47 1190.48 1435.32 1190.91 1435.96 1191.76C1436.81 1192.4 1437.24 1193.25 1437.24 1194.32V1208.72C1437.24 1209.57 1437.35 1210.11 1437.56 1210.32C1437.99 1210.32 1438.41 1210 1438.84 1209.36C1447.8 1195.49 1460.28 1188.56 1476.28 1188.56ZM1569.91 1354C1567.77 1354 1566.39 1352.93 1565.75 1350.8L1514.23 1194.64C1514.01 1194.21 1513.91 1193.68 1513.91 1193.04C1513.91 1191.12 1515.08 1190.16 1517.43 1190.16H1550.07C1552.41 1190.16 1553.91 1191.23 1554.55 1193.36L1585.59 1300.24C1585.8 1300.88 1586.12 1301.2 1586.55 1301.2C1586.97 1301.2 1587.29 1300.88 1587.51 1300.24L1618.55 1193.36C1619.19 1191.23 1620.68 1190.16 1623.03 1190.16L1655.67 1190.8C1656.95 1190.8 1657.91 1191.23 1658.55 1192.08C1659.19 1192.72 1659.29 1193.79 1658.87 1195.28L1607.67 1350.8C1607.03 1352.93 1605.64 1354 1603.51 1354H1569.91ZM1816.17 1253.84C1817.02 1259.17 1817.45 1265.15 1817.45 1271.76L1817.13 1281.68C1817.13 1284.24 1815.85 1285.52 1813.29 1285.52H1713.13C1712.06 1285.52 1711.53 1286.05 1711.53 1287.12C1712.17 1294.16 1713.13 1298.96 1714.41 1301.52C1719.53 1316.88 1732.01 1324.67 1751.85 1324.88C1766.35 1324.88 1777.87 1318.91 1786.41 1306.96C1787.26 1305.68 1788.33 1305.04 1789.61 1305.04C1790.46 1305.04 1791.21 1305.36 1791.85 1306L1811.69 1322.32C1813.61 1323.81 1813.93 1325.52 1812.65 1327.44C1806.03 1336.83 1797.18 1344.08 1786.09 1349.2C1775.21 1354.32 1763.05 1356.88 1749.61 1356.88C1732.97 1356.88 1718.78 1353.15 1707.05 1345.68C1695.53 1338.21 1687.1 1327.76 1681.77 1314.32C1676.86 1302.8 1674.41 1286.8 1674.41 1266.32C1674.41 1253.95 1675.69 1243.92 1678.25 1236.24C1682.51 1221.31 1690.51 1209.57 1702.25 1201.04C1714.19 1192.29 1728.49 1187.92 1745.13 1187.92C1787.15 1187.92 1810.83 1209.89 1816.17 1253.84ZM1745.13 1219.92C1737.23 1219.92 1730.62 1221.95 1725.29 1226C1720.17 1229.84 1716.54 1235.28 1714.41 1242.32C1713.13 1245.95 1712.27 1250.64 1711.85 1256.4C1711.42 1257.47 1711.85 1258 1713.13 1258H1778.09C1779.15 1258 1779.69 1257.47 1779.69 1256.4C1779.26 1251.07 1778.62 1247.01 1777.77 1244.24C1775.85 1236.56 1772.01 1230.59 1766.25 1226.32C1760.7 1222.05 1753.66 1219.92 1745.13 1219.92ZM1840.98 1417.68C1840.34 1417.68 1839.81 1417.25 1839.38 1416.4C1838.96 1415.76 1838.74 1414.91 1838.74 1413.84V1390.8C1838.74 1389.73 1839.06 1388.77 1839.7 1387.92C1840.56 1387.28 1841.52 1386.96 1842.58 1386.96H1842.9C1851.65 1386.75 1858.48 1385.79 1863.38 1384.08C1868.29 1382.59 1872.34 1379.6 1875.54 1375.12C1878.74 1370.64 1881.62 1363.92 1884.18 1354.96C1884.4 1354.53 1884.4 1353.89 1884.18 1353.04L1831.38 1194.64C1831.17 1194.21 1831.06 1193.68 1831.06 1193.04C1831.06 1191.12 1832.13 1190.16 1834.26 1190.16H1865.62C1867.97 1190.16 1869.46 1191.23 1870.1 1193.36L1902.1 1306C1902.32 1306.64 1902.64 1306.96 1903.06 1306.96C1903.49 1306.96 1903.81 1306.64 1904.02 1306L1936.02 1193.36C1936.66 1191.23 1938.16 1190.16 1940.5 1190.16H1970.9C1972.18 1190.16 1973.04 1190.59 1973.46 1191.44C1974.1 1192.08 1974.21 1193.15 1973.78 1194.64L1917.46 1362.96C1912.13 1378.11 1906.9 1389.41 1901.78 1396.88C1896.66 1404.35 1889.62 1409.68 1880.66 1412.88C1871.92 1416.08 1859.44 1417.68 1843.22 1417.68H1840.98Z" fill="white"/>
</svg>
